<svg xmlns="http://www.w3.org/2000/svg" xmlns:xlink="http://www.w3.org/1999/xlink" class="httpgd" width="696.80" height="694.40" viewBox="0 0 696.80 694.40">
<defs>
  <style type='text/css'><![CDATA[
    .httpgd line, .httpgd polyline, .httpgd polygon, .httpgd path, .httpgd rect, .httpgd circle {
      fill: none;
      stroke: #000000;
      stroke-linecap: round;
      stroke-linejoin: round;
      stroke-miterlimit: 10.00;
    }
  ]]></style>
<clipPath id="c0"><rect x="0.00" y="0.00" width="696.80" height="694.40"/></clipPath>
<clipPath id="c1"><rect x="43.06" y="24.13" width="648.26" height="518.92"/></clipPath>
<clipPath id="c2"><rect x="0.00" y="0.00" width="696.80" height="694.40"/></clipPath>
</defs>
<rect width="100%" height="100%" style="stroke: none;fill: #FFFFFF;"/>
<g clip-path="url(#c0)">
</g><g clip-path="url(#c1)">
<polyline points="43.06,527.63 691.32,527.63" style="stroke-width: 1.07;stroke: #EBEBEB;stroke-linecap: butt;"/>
<polyline points="43.06,501.94 691.32,501.94" style="stroke-width: 1.07;stroke: #EBEBEB;stroke-linecap: butt;"/>
<polyline points="43.06,476.25 691.32,476.25" style="stroke-width: 1.07;stroke: #EBEBEB;stroke-linecap: butt;"/>
<polyline points="43.06,450.56 691.32,450.56" style="stroke-width: 1.07;stroke: #EBEBEB;stroke-linecap: butt;"/>
<polyline points="43.06,424.87 691.32,424.87" style="stroke-width: 1.07;stroke: #EBEBEB;stroke-linecap: butt;"/>
<polyline points="43.06,399.19 691.32,399.19" style="stroke-width: 1.07;stroke: #EBEBEB;stroke-linecap: butt;"/>
<polyline points="43.06,373.50 691.32,373.50" style="stroke-width: 1.07;stroke: #EBEBEB;stroke-linecap: butt;"/>
<polyline points="43.06,347.81 691.32,347.81" style="stroke-width: 1.07;stroke: #EBEBEB;stroke-linecap: butt;"/>
<polyline points="43.06,322.12 691.32,322.12" style="stroke-width: 1.07;stroke: #EBEBEB;stroke-linecap: butt;"/>
<polyline points="43.06,296.43 691.32,296.43" style="stroke-width: 1.07;stroke: #EBEBEB;stroke-linecap: butt;"/>
<polyline points="43.06,270.74 691.32,270.74" style="stroke-width: 1.07;stroke: #EBEBEB;stroke-linecap: butt;"/>
<polyline points="43.06,245.05 691.32,245.05" style="stroke-width: 1.07;stroke: #EBEBEB;stroke-linecap: butt;"/>
<polyline points="43.06,219.36 691.32,219.36" style="stroke-width: 1.07;stroke: #EBEBEB;stroke-linecap: butt;"/>
<polyline points="43.06,193.67 691.32,193.67" style="stroke-width: 1.07;stroke: #EBEBEB;stroke-linecap: butt;"/>
<polyline points="43.06,167.99 691.32,167.99" style="stroke-width: 1.07;stroke: #EBEBEB;stroke-linecap: butt;"/>
<polyline points="43.06,142.30 691.32,142.30" style="stroke-width: 1.07;stroke: #EBEBEB;stroke-linecap: butt;"/>
<polyline points="43.06,116.61 691.32,116.61" style="stroke-width: 1.07;stroke: #EBEBEB;stroke-linecap: butt;"/>
<polyline points="43.06,90.92 691.32,90.92" style="stroke-width: 1.07;stroke: #EBEBEB;stroke-linecap: butt;"/>
<polyline points="43.06,65.23 691.32,65.23" style="stroke-width: 1.07;stroke: #EBEBEB;stroke-linecap: butt;"/>
<polyline points="43.06,39.54 691.32,39.54" style="stroke-width: 1.07;stroke: #EBEBEB;stroke-linecap: butt;"/>
<polyline points="57.91,543.04 57.91,24.13" style="stroke-width: 1.07;stroke: #EBEBEB;stroke-linecap: butt;"/>
<polyline points="82.65,543.04 82.65,24.13" style="stroke-width: 1.07;stroke: #EBEBEB;stroke-linecap: butt;"/>
<polyline points="107.39,543.04 107.39,24.13" style="stroke-width: 1.07;stroke: #EBEBEB;stroke-linecap: butt;"/>
<polyline points="132.13,543.04 132.13,24.13" style="stroke-width: 1.07;stroke: #EBEBEB;stroke-linecap: butt;"/>
<polyline points="156.88,543.04 156.88,24.13" style="stroke-width: 1.07;stroke: #EBEBEB;stroke-linecap: butt;"/>
<polyline points="181.62,543.04 181.62,24.13" style="stroke-width: 1.07;stroke: #EBEBEB;stroke-linecap: butt;"/>
<polyline points="206.36,543.04 206.36,24.13" style="stroke-width: 1.07;stroke: #EBEBEB;stroke-linecap: butt;"/>
<polyline points="231.10,543.04 231.10,24.13" style="stroke-width: 1.07;stroke: #EBEBEB;stroke-linecap: butt;"/>
<polyline points="255.85,543.04 255.85,24.13" style="stroke-width: 1.07;stroke: #EBEBEB;stroke-linecap: butt;"/>
<polyline points="280.59,543.04 280.59,24.13" style="stroke-width: 1.07;stroke: #EBEBEB;stroke-linecap: butt;"/>
<polyline points="305.33,543.04 305.33,24.13" style="stroke-width: 1.07;stroke: #EBEBEB;stroke-linecap: butt;"/>
<polyline points="330.08,543.04 330.08,24.13" style="stroke-width: 1.07;stroke: #EBEBEB;stroke-linecap: butt;"/>
<polyline points="354.82,543.04 354.82,24.13" style="stroke-width: 1.07;stroke: #EBEBEB;stroke-linecap: butt;"/>
<polyline points="379.56,543.04 379.56,24.13" style="stroke-width: 1.07;stroke: #EBEBEB;stroke-linecap: butt;"/>
<polyline points="404.30,543.04 404.30,24.13" style="stroke-width: 1.07;stroke: #EBEBEB;stroke-linecap: butt;"/>
<polyline points="429.05,543.04 429.05,24.13" style="stroke-width: 1.07;stroke: #EBEBEB;stroke-linecap: butt;"/>
<polyline points="453.79,543.04 453.79,24.13" style="stroke-width: 1.07;stroke: #EBEBEB;stroke-linecap: butt;"/>
<polyline points="478.53,543.04 478.53,24.13" style="stroke-width: 1.07;stroke: #EBEBEB;stroke-linecap: butt;"/>
<polyline points="503.28,543.04 503.28,24.13" style="stroke-width: 1.07;stroke: #EBEBEB;stroke-linecap: butt;"/>
<polyline points="528.02,543.04 528.02,24.13" style="stroke-width: 1.07;stroke: #EBEBEB;stroke-linecap: butt;"/>
<polyline points="552.76,543.04 552.76,24.13" style="stroke-width: 1.07;stroke: #EBEBEB;stroke-linecap: butt;"/>
<polyline points="577.50,543.04 577.50,24.13" style="stroke-width: 1.07;stroke: #EBEBEB;stroke-linecap: butt;"/>
<polyline points="602.25,543.04 602.25,24.13" style="stroke-width: 1.07;stroke: #EBEBEB;stroke-linecap: butt;"/>
<polyline points="626.99,543.04 626.99,24.13" style="stroke-width: 1.07;stroke: #EBEBEB;stroke-linecap: butt;"/>
<polyline points="651.73,543.04 651.73,24.13" style="stroke-width: 1.07;stroke: #EBEBEB;stroke-linecap: butt;"/>
<polyline points="676.47,543.04 676.47,24.13" style="stroke-width: 1.07;stroke: #EBEBEB;stroke-linecap: butt;"/>
<circle cx="57.91" cy="527.63" r="2.49" style="stroke-width: 0.71;stroke: none;fill: #D3D3D3;"/>
<circle cx="82.65" cy="527.63" r="2.49" style="stroke-width: 0.71;stroke: none;fill: #D3D3D3;"/>
<circle cx="132.13" cy="527.63" r="7.41" style="stroke-width: 0.71;stroke: none;fill: #E69F00;"/>
<circle cx="206.36" cy="527.63" r="2.49" style="stroke-width: 0.71;stroke: none;fill: #D3D3D3;"/>
<circle cx="330.08" cy="527.63" r="2.49" style="stroke-width: 0.71;stroke: none;fill: #D3D3D3;"/>
<circle cx="429.05" cy="527.63" r="10.07" style="stroke-width: 0.71;stroke: none;fill: #E69F00;"/>
<circle cx="577.50" cy="527.63" r="2.49" style="stroke-width: 0.71;stroke: none;fill: #D3D3D3;"/>
<circle cx="651.73" cy="527.63" r="2.49" style="stroke-width: 0.71;stroke: none;fill: #D3D3D3;"/>
<circle cx="676.47" cy="527.63" r="4.85" style="stroke-width: 0.71;stroke: none;fill: #56B4E9;"/>
<circle cx="132.13" cy="501.94" r="7.92" style="stroke-width: 0.71;stroke: none;fill: #D55E00;"/>
<circle cx="206.36" cy="501.94" r="2.49" style="stroke-width: 0.71;stroke: none;fill: #D3D3D3;"/>
<circle cx="330.08" cy="501.94" r="2.49" style="stroke-width: 0.71;stroke: none;fill: #D3D3D3;"/>
<circle cx="429.05" cy="501.94" r="8.43" style="stroke-width: 0.71;stroke: none;fill: #D55E00;"/>
<circle cx="577.50" cy="501.94" r="2.49" style="stroke-width: 0.71;stroke: none;fill: #D3D3D3;"/>
<circle cx="132.13" cy="476.25" r="2.49" style="stroke-width: 0.71;stroke: none;fill: #D3D3D3;"/>
<circle cx="156.88" cy="476.25" r="5.80" style="stroke-width: 0.71;stroke: none;fill: #56B4E9;"/>
<circle cx="206.36" cy="476.25" r="2.49" style="stroke-width: 0.71;stroke: none;fill: #D3D3D3;"/>
<circle cx="255.85" cy="476.25" r="6.15" style="stroke-width: 0.71;stroke: none;fill: #E69F00;"/>
<circle cx="280.59" cy="476.25" r="5.92" style="stroke-width: 0.71;stroke: none;fill: #56B4E9;"/>
<circle cx="305.33" cy="476.25" r="6.32" style="stroke-width: 0.71;stroke: none;fill: #56B4E9;"/>
<circle cx="330.08" cy="476.25" r="2.49" style="stroke-width: 0.71;stroke: none;fill: #D3D3D3;"/>
<circle cx="404.30" cy="476.25" r="6.67" style="stroke-width: 0.71;stroke: none;fill: #E69F00;"/>
<circle cx="429.05" cy="476.25" r="8.16" style="stroke-width: 0.71;stroke: none;fill: #E69F00;"/>
<circle cx="577.50" cy="476.25" r="2.49" style="stroke-width: 0.71;stroke: none;fill: #D3D3D3;"/>
<circle cx="676.47" cy="476.25" r="5.22" style="stroke-width: 0.71;stroke: none;fill: #56B4E9;"/>
<circle cx="57.91" cy="450.56" r="2.49" style="stroke-width: 0.71;stroke: none;fill: #D3D3D3;"/>
<circle cx="132.13" cy="450.56" r="9.32" style="stroke-width: 0.71;stroke: none;fill: #D55E00;"/>
<circle cx="156.88" cy="450.56" r="2.49" style="stroke-width: 0.71;stroke: none;fill: #D3D3D3;"/>
<circle cx="206.36" cy="450.56" r="2.49" style="stroke-width: 0.71;stroke: none;fill: #D3D3D3;"/>
<circle cx="280.59" cy="450.56" r="6.42" style="stroke-width: 0.71;stroke: none;fill: #56B4E9;"/>
<circle cx="330.08" cy="450.56" r="2.49" style="stroke-width: 0.71;stroke: none;fill: #D3D3D3;"/>
<circle cx="429.05" cy="450.56" r="8.28" style="stroke-width: 0.71;stroke: none;fill: #D55E00;"/>
<circle cx="577.50" cy="450.56" r="2.49" style="stroke-width: 0.71;stroke: none;fill: #D3D3D3;"/>
<circle cx="57.91" cy="424.87" r="2.49" style="stroke-width: 0.71;stroke: none;fill: #D3D3D3;"/>
<circle cx="107.39" cy="424.87" r="2.49" style="stroke-width: 0.71;stroke: none;fill: #D3D3D3;"/>
<circle cx="132.13" cy="424.87" r="8.28" style="stroke-width: 0.71;stroke: none;fill: #D55E00;"/>
<circle cx="156.88" cy="424.87" r="6.15" style="stroke-width: 0.71;stroke: none;fill: #E69F00;"/>
<circle cx="181.62" cy="424.87" r="2.49" style="stroke-width: 0.71;stroke: none;fill: #D3D3D3;"/>
<circle cx="206.36" cy="424.87" r="2.49" style="stroke-width: 0.71;stroke: none;fill: #D3D3D3;"/>
<circle cx="255.85" cy="424.87" r="5.98" style="stroke-width: 0.71;stroke: none;fill: #D55E00;"/>
<circle cx="280.59" cy="424.87" r="5.25" style="stroke-width: 0.71;stroke: none;fill: #56B4E9;"/>
<circle cx="305.33" cy="424.87" r="6.29" style="stroke-width: 0.71;stroke: none;fill: #E69F00;"/>
<circle cx="330.08" cy="424.87" r="2.49" style="stroke-width: 0.71;stroke: none;fill: #D3D3D3;"/>
<circle cx="354.82" cy="424.87" r="2.49" style="stroke-width: 0.71;stroke: none;fill: #D3D3D3;"/>
<circle cx="404.30" cy="424.87" r="6.12" style="stroke-width: 0.71;stroke: none;fill: #D55E00;"/>
<circle cx="429.05" cy="424.87" r="7.61" style="stroke-width: 0.71;stroke: none;fill: #D55E00;"/>
<circle cx="577.50" cy="424.87" r="2.49" style="stroke-width: 0.71;stroke: none;fill: #D3D3D3;"/>
<circle cx="602.25" cy="424.87" r="6.06" style="stroke-width: 0.71;stroke: none;fill: #D55E00;"/>
<circle cx="651.73" cy="424.87" r="2.49" style="stroke-width: 0.71;stroke: none;fill: #D3D3D3;"/>
<circle cx="676.47" cy="424.87" r="8.67" style="stroke-width: 0.71;stroke: none;fill: #D55E00;"/>
<circle cx="57.91" cy="399.19" r="5.52" style="stroke-width: 0.71;stroke: none;fill: #E69F00;"/>
<circle cx="107.39" cy="399.19" r="2.49" style="stroke-width: 0.71;stroke: none;fill: #D3D3D3;"/>
<circle cx="132.13" cy="399.19" r="5.48" style="stroke-width: 0.71;stroke: none;fill: #E69F00;"/>
<circle cx="156.88" cy="399.19" r="6.44" style="stroke-width: 0.71;stroke: none;fill: #E69F00;"/>
<circle cx="206.36" cy="399.19" r="2.49" style="stroke-width: 0.71;stroke: none;fill: #D3D3D3;"/>
<circle cx="231.10" cy="399.19" r="2.49" style="stroke-width: 0.71;stroke: none;fill: #D3D3D3;"/>
<circle cx="255.85" cy="399.19" r="6.27" style="stroke-width: 0.71;stroke: none;fill: #E69F00;"/>
<circle cx="305.33" cy="399.19" r="5.58" style="stroke-width: 0.71;stroke: none;fill: #E69F00;"/>
<circle cx="330.08" cy="399.19" r="2.49" style="stroke-width: 0.71;stroke: none;fill: #D3D3D3;"/>
<circle cx="404.30" cy="399.19" r="6.85" style="stroke-width: 0.71;stroke: none;fill: #E69F00;"/>
<circle cx="429.05" cy="399.19" r="6.49" style="stroke-width: 0.71;stroke: none;fill: #E69F00;"/>
<circle cx="577.50" cy="399.19" r="2.49" style="stroke-width: 0.71;stroke: none;fill: #D3D3D3;"/>
<circle cx="602.25" cy="399.19" r="5.63" style="stroke-width: 0.71;stroke: none;fill: #56B4E9;"/>
<circle cx="651.73" cy="399.19" r="2.49" style="stroke-width: 0.71;stroke: none;fill: #D3D3D3;"/>
<circle cx="57.91" cy="373.50" r="2.49" style="stroke-width: 0.71;stroke: none;fill: #D3D3D3;"/>
<circle cx="82.65" cy="373.50" r="2.49" style="stroke-width: 0.71;stroke: none;fill: #D3D3D3;"/>
<circle cx="107.39" cy="373.50" r="2.49" style="stroke-width: 0.71;stroke: none;fill: #D3D3D3;"/>
<circle cx="132.13" cy="373.50" r="2.49" style="stroke-width: 0.71;stroke: none;fill: #D3D3D3;"/>
<circle cx="181.62" cy="373.50" r="2.49" style="stroke-width: 0.71;stroke: none;fill: #D3D3D3;"/>
<circle cx="206.36" cy="373.50" r="2.49" style="stroke-width: 0.71;stroke: none;fill: #D3D3D3;"/>
<circle cx="280.59" cy="373.50" r="2.49" style="stroke-width: 0.71;stroke: none;fill: #D3D3D3;"/>
<circle cx="305.33" cy="373.50" r="2.49" style="stroke-width: 0.71;stroke: none;fill: #D3D3D3;"/>
<circle cx="330.08" cy="373.50" r="2.49" style="stroke-width: 0.71;stroke: none;fill: #D3D3D3;"/>
<circle cx="354.82" cy="373.50" r="2.49" style="stroke-width: 0.71;stroke: none;fill: #D3D3D3;"/>
<circle cx="429.05" cy="373.50" r="5.24" style="stroke-width: 0.71;stroke: none;fill: #D55E00;"/>
<circle cx="453.79" cy="373.50" r="2.49" style="stroke-width: 0.71;stroke: none;fill: #D3D3D3;"/>
<circle cx="478.53" cy="373.50" r="2.49" style="stroke-width: 0.71;stroke: none;fill: #D3D3D3;"/>
<circle cx="503.28" cy="373.50" r="2.49" style="stroke-width: 0.71;stroke: none;fill: #D3D3D3;"/>
<circle cx="528.02" cy="373.50" r="2.49" style="stroke-width: 0.71;stroke: none;fill: #D3D3D3;"/>
<circle cx="552.76" cy="373.50" r="2.49" style="stroke-width: 0.71;stroke: none;fill: #D3D3D3;"/>
<circle cx="577.50" cy="373.50" r="2.49" style="stroke-width: 0.71;stroke: none;fill: #D3D3D3;"/>
<circle cx="626.99" cy="373.50" r="2.49" style="stroke-width: 0.71;stroke: none;fill: #D3D3D3;"/>
<circle cx="651.73" cy="373.50" r="2.49" style="stroke-width: 0.71;stroke: none;fill: #D3D3D3;"/>
<circle cx="676.47" cy="373.50" r="2.49" style="stroke-width: 0.71;stroke: none;fill: #D3D3D3;"/>
<circle cx="57.91" cy="347.81" r="2.49" style="stroke-width: 0.71;stroke: none;fill: #D3D3D3;"/>
<circle cx="107.39" cy="347.81" r="2.49" style="stroke-width: 0.71;stroke: none;fill: #D3D3D3;"/>
<circle cx="206.36" cy="347.81" r="2.49" style="stroke-width: 0.71;stroke: none;fill: #D3D3D3;"/>
<circle cx="255.85" cy="347.81" r="6.03" style="stroke-width: 0.71;stroke: none;fill: #E69F00;"/>
<circle cx="280.59" cy="347.81" r="2.49" style="stroke-width: 0.71;stroke: none;fill: #D3D3D3;"/>
<circle cx="330.08" cy="347.81" r="2.49" style="stroke-width: 0.71;stroke: none;fill: #D3D3D3;"/>
<circle cx="354.82" cy="347.81" r="2.49" style="stroke-width: 0.71;stroke: none;fill: #D3D3D3;"/>
<circle cx="404.30" cy="347.81" r="6.03" style="stroke-width: 0.71;stroke: none;fill: #E69F00;"/>
<circle cx="429.05" cy="347.81" r="5.35" style="stroke-width: 0.71;stroke: none;fill: #D55E00;"/>
<circle cx="577.50" cy="347.81" r="2.49" style="stroke-width: 0.71;stroke: none;fill: #D3D3D3;"/>
<circle cx="602.25" cy="347.81" r="4.66" style="stroke-width: 0.71;stroke: none;fill: #56B4E9;"/>
<circle cx="626.99" cy="347.81" r="5.04" style="stroke-width: 0.71;stroke: none;fill: #56B4E9;"/>
<circle cx="651.73" cy="347.81" r="2.49" style="stroke-width: 0.71;stroke: none;fill: #D3D3D3;"/>
<circle cx="676.47" cy="347.81" r="5.71" style="stroke-width: 0.71;stroke: none;fill: #E69F00;"/>
<circle cx="57.91" cy="322.12" r="2.49" style="stroke-width: 0.71;stroke: none;fill: #D3D3D3;"/>
<circle cx="132.13" cy="322.12" r="6.51" style="stroke-width: 0.71;stroke: none;fill: #E69F00;"/>
<circle cx="206.36" cy="322.12" r="2.49" style="stroke-width: 0.71;stroke: none;fill: #D3D3D3;"/>
<circle cx="255.85" cy="322.12" r="6.00" style="stroke-width: 0.71;stroke: none;fill: #56B4E9;"/>
<circle cx="330.08" cy="322.12" r="2.49" style="stroke-width: 0.71;stroke: none;fill: #D3D3D3;"/>
<circle cx="404.30" cy="322.12" r="6.80" style="stroke-width: 0.71;stroke: none;fill: #56B4E9;"/>
<circle cx="429.05" cy="322.12" r="6.75" style="stroke-width: 0.71;stroke: none;fill: #D55E00;"/>
<circle cx="528.02" cy="322.12" r="6.24" style="stroke-width: 0.71;stroke: none;fill: #56B4E9;"/>
<circle cx="552.76" cy="322.12" r="8.11" style="stroke-width: 0.71;stroke: none;fill: #D55E00;"/>
<circle cx="577.50" cy="322.12" r="2.49" style="stroke-width: 0.71;stroke: none;fill: #D3D3D3;"/>
<circle cx="651.73" cy="322.12" r="2.49" style="stroke-width: 0.71;stroke: none;fill: #D3D3D3;"/>
<circle cx="676.47" cy="322.12" r="6.49" style="stroke-width: 0.71;stroke: none;fill: #E69F00;"/>
<circle cx="57.91" cy="296.43" r="2.49" style="stroke-width: 0.71;stroke: none;fill: #D3D3D3;"/>
<circle cx="132.13" cy="296.43" r="8.67" style="stroke-width: 0.71;stroke: none;fill: #D55E00;"/>
<circle cx="156.88" cy="296.43" r="5.63" style="stroke-width: 0.71;stroke: none;fill: #E69F00;"/>
<circle cx="206.36" cy="296.43" r="2.49" style="stroke-width: 0.71;stroke: none;fill: #D3D3D3;"/>
<circle cx="255.85" cy="296.43" r="4.95" style="stroke-width: 0.71;stroke: none;fill: #56B4E9;"/>
<circle cx="280.59" cy="296.43" r="5.94" style="stroke-width: 0.71;stroke: none;fill: #E69F00;"/>
<circle cx="305.33" cy="296.43" r="5.69" style="stroke-width: 0.71;stroke: none;fill: #E69F00;"/>
<circle cx="330.08" cy="296.43" r="2.49" style="stroke-width: 0.71;stroke: none;fill: #D3D3D3;"/>
<circle cx="354.82" cy="296.43" r="2.49" style="stroke-width: 0.71;stroke: none;fill: #D3D3D3;"/>
<circle cx="379.56" cy="296.43" r="6.12" style="stroke-width: 0.71;stroke: none;fill: #56B4E9;"/>
<circle cx="404.30" cy="296.43" r="5.25" style="stroke-width: 0.71;stroke: none;fill: #56B4E9;"/>
<circle cx="429.05" cy="296.43" r="11.02" style="stroke-width: 0.71;stroke: none;fill: #D55E00;"/>
<circle cx="478.53" cy="296.43" r="5.78" style="stroke-width: 0.71;stroke: none;fill: #56B4E9;"/>
<circle cx="528.02" cy="296.43" r="6.13" style="stroke-width: 0.71;stroke: none;fill: #56B4E9;"/>
<circle cx="577.50" cy="296.43" r="2.49" style="stroke-width: 0.71;stroke: none;fill: #D3D3D3;"/>
<circle cx="676.47" cy="296.43" r="2.49" style="stroke-width: 0.71;stroke: none;fill: #D55E00;"/>
<circle cx="57.91" cy="270.74" r="2.49" style="stroke-width: 0.71;stroke: none;fill: #D3D3D3;"/>
<circle cx="206.36" cy="270.74" r="2.49" style="stroke-width: 0.71;stroke: none;fill: #D3D3D3;"/>
<circle cx="330.08" cy="270.74" r="2.49" style="stroke-width: 0.71;stroke: none;fill: #D3D3D3;"/>
<circle cx="354.82" cy="270.74" r="2.49" style="stroke-width: 0.71;stroke: none;fill: #D3D3D3;"/>
<circle cx="379.56" cy="270.74" r="2.49" style="stroke-width: 0.71;stroke: none;fill: #D3D3D3;"/>
<circle cx="429.05" cy="270.74" r="5.11" style="stroke-width: 0.71;stroke: none;fill: #D55E00;"/>
<circle cx="453.79" cy="270.74" r="2.49" style="stroke-width: 0.71;stroke: none;fill: #D3D3D3;"/>
<circle cx="577.50" cy="270.74" r="2.49" style="stroke-width: 0.71;stroke: none;fill: #D3D3D3;"/>
<circle cx="602.25" cy="270.74" r="5.92" style="stroke-width: 0.71;stroke: none;fill: #56B4E9;"/>
<circle cx="676.47" cy="270.74" r="7.32" style="stroke-width: 0.71;stroke: none;fill: #E69F00;"/>
<circle cx="57.91" cy="245.05" r="2.49" style="stroke-width: 0.71;stroke: none;fill: #D3D3D3;"/>
<circle cx="132.13" cy="245.05" r="6.76" style="stroke-width: 0.71;stroke: none;fill: #E69F00;"/>
<circle cx="206.36" cy="245.05" r="2.49" style="stroke-width: 0.71;stroke: none;fill: #D3D3D3;"/>
<circle cx="255.85" cy="245.05" r="6.04" style="stroke-width: 0.71;stroke: none;fill: #56B4E9;"/>
<circle cx="280.59" cy="245.05" r="6.44" style="stroke-width: 0.71;stroke: none;fill: #56B4E9;"/>
<circle cx="330.08" cy="245.05" r="2.49" style="stroke-width: 0.71;stroke: none;fill: #D3D3D3;"/>
<circle cx="404.30" cy="245.05" r="2.49" style="stroke-width: 0.71;stroke: none;fill: #D3D3D3;"/>
<circle cx="429.05" cy="245.05" r="6.32" style="stroke-width: 0.71;stroke: none;fill: #E69F00;"/>
<circle cx="577.50" cy="245.05" r="2.49" style="stroke-width: 0.71;stroke: none;fill: #D3D3D3;"/>
<circle cx="676.47" cy="245.05" r="6.24" style="stroke-width: 0.71;stroke: none;fill: #56B4E9;"/>
<circle cx="57.91" cy="219.36" r="2.49" style="stroke-width: 0.71;stroke: none;fill: #D3D3D3;"/>
<circle cx="132.13" cy="219.36" r="6.19" style="stroke-width: 0.71;stroke: none;fill: #56B4E9;"/>
<circle cx="156.88" cy="219.36" r="6.73" style="stroke-width: 0.71;stroke: none;fill: #E69F00;"/>
<circle cx="206.36" cy="219.36" r="2.49" style="stroke-width: 0.71;stroke: none;fill: #D3D3D3;"/>
<circle cx="255.85" cy="219.36" r="5.63" style="stroke-width: 0.71;stroke: none;fill: #56B4E9;"/>
<circle cx="280.59" cy="219.36" r="2.49" style="stroke-width: 0.71;stroke: none;fill: #D3D3D3;"/>
<circle cx="305.33" cy="219.36" r="5.96" style="stroke-width: 0.71;stroke: none;fill: #E69F00;"/>
<circle cx="330.08" cy="219.36" r="2.49" style="stroke-width: 0.71;stroke: none;fill: #D3D3D3;"/>
<circle cx="404.30" cy="219.36" r="6.36" style="stroke-width: 0.71;stroke: none;fill: #E69F00;"/>
<circle cx="429.05" cy="219.36" r="6.37" style="stroke-width: 0.71;stroke: none;fill: #56B4E9;"/>
<circle cx="552.76" cy="219.36" r="9.38" style="stroke-width: 0.71;stroke: none;fill: #D55E00;"/>
<circle cx="577.50" cy="219.36" r="2.49" style="stroke-width: 0.71;stroke: none;fill: #D3D3D3;"/>
<circle cx="132.13" cy="193.67" r="7.68" style="stroke-width: 0.71;stroke: none;fill: #E69F00;"/>
<circle cx="429.05" cy="193.67" r="9.20" style="stroke-width: 0.71;stroke: none;fill: #D55E00;"/>
<circle cx="602.25" cy="193.67" r="6.79" style="stroke-width: 0.71;stroke: none;fill: #E69F00;"/>
<circle cx="676.47" cy="193.67" r="5.90" style="stroke-width: 0.71;stroke: none;fill: #56B4E9;"/>
<circle cx="57.91" cy="167.99" r="2.49" style="stroke-width: 0.71;stroke: none;fill: #D3D3D3;"/>
<circle cx="206.36" cy="167.99" r="2.49" style="stroke-width: 0.71;stroke: none;fill: #D3D3D3;"/>
<circle cx="330.08" cy="167.99" r="2.49" style="stroke-width: 0.71;stroke: none;fill: #D3D3D3;"/>
<circle cx="354.82" cy="167.99" r="2.49" style="stroke-width: 0.71;stroke: none;fill: #D3D3D3;"/>
<circle cx="528.02" cy="167.99" r="2.49" style="stroke-width: 0.71;stroke: none;fill: #D3D3D3;"/>
<circle cx="552.76" cy="167.99" r="2.49" style="stroke-width: 0.71;stroke: none;fill: #D3D3D3;"/>
<circle cx="577.50" cy="167.99" r="2.49" style="stroke-width: 0.71;stroke: none;fill: #D3D3D3;"/>
<circle cx="354.82" cy="142.30" r="2.49" style="stroke-width: 0.71;stroke: none;fill: #D3D3D3;"/>
<circle cx="577.50" cy="142.30" r="2.49" style="stroke-width: 0.71;stroke: none;fill: #D3D3D3;"/>
<circle cx="57.91" cy="116.61" r="2.49" style="stroke-width: 0.71;stroke: none;fill: #D3D3D3;"/>
<circle cx="82.65" cy="116.61" r="2.49" style="stroke-width: 0.71;stroke: none;fill: #D3D3D3;"/>
<circle cx="107.39" cy="116.61" r="2.49" style="stroke-width: 0.71;stroke: none;fill: #D3D3D3;"/>
<circle cx="156.88" cy="116.61" r="2.49" style="stroke-width: 0.71;stroke: none;fill: #D3D3D3;"/>
<circle cx="206.36" cy="116.61" r="2.49" style="stroke-width: 0.71;stroke: none;fill: #D3D3D3;"/>
<circle cx="280.59" cy="116.61" r="2.49" style="stroke-width: 0.71;stroke: none;fill: #D3D3D3;"/>
<circle cx="305.33" cy="116.61" r="2.49" style="stroke-width: 0.71;stroke: none;fill: #D3D3D3;"/>
<circle cx="330.08" cy="116.61" r="2.49" style="stroke-width: 0.71;stroke: none;fill: #D3D3D3;"/>
<circle cx="354.82" cy="116.61" r="2.49" style="stroke-width: 0.71;stroke: none;fill: #D3D3D3;"/>
<circle cx="429.05" cy="116.61" r="5.02" style="stroke-width: 0.71;stroke: none;fill: #D55E00;"/>
<circle cx="453.79" cy="116.61" r="2.49" style="stroke-width: 0.71;stroke: none;fill: #D3D3D3;"/>
<circle cx="478.53" cy="116.61" r="2.49" style="stroke-width: 0.71;stroke: none;fill: #D3D3D3;"/>
<circle cx="503.28" cy="116.61" r="4.37" style="stroke-width: 0.71;stroke: none;fill: #56B4E9;"/>
<circle cx="528.02" cy="116.61" r="2.49" style="stroke-width: 0.71;stroke: none;fill: #D3D3D3;"/>
<circle cx="552.76" cy="116.61" r="2.49" style="stroke-width: 0.71;stroke: none;fill: #D3D3D3;"/>
<circle cx="577.50" cy="116.61" r="2.49" style="stroke-width: 0.71;stroke: none;fill: #D3D3D3;"/>
<circle cx="602.25" cy="116.61" r="2.49" style="stroke-width: 0.71;stroke: none;fill: #D3D3D3;"/>
<circle cx="626.99" cy="116.61" r="2.49" style="stroke-width: 0.71;stroke: none;fill: #D3D3D3;"/>
<circle cx="651.73" cy="116.61" r="2.49" style="stroke-width: 0.71;stroke: none;fill: #D3D3D3;"/>
<circle cx="57.91" cy="90.92" r="2.49" style="stroke-width: 0.71;stroke: none;fill: #D3D3D3;"/>
<circle cx="132.13" cy="90.92" r="6.12" style="stroke-width: 0.71;stroke: none;fill: #E69F00;"/>
<circle cx="156.88" cy="90.92" r="6.17" style="stroke-width: 0.71;stroke: none;fill: #56B4E9;"/>
<circle cx="181.62" cy="90.92" r="6.53" style="stroke-width: 0.71;stroke: none;fill: #56B4E9;"/>
<circle cx="206.36" cy="90.92" r="2.49" style="stroke-width: 0.71;stroke: none;fill: #D3D3D3;"/>
<circle cx="280.59" cy="90.92" r="6.76" style="stroke-width: 0.71;stroke: none;fill: #56B4E9;"/>
<circle cx="305.33" cy="90.92" r="5.86" style="stroke-width: 0.71;stroke: none;fill: #56B4E9;"/>
<circle cx="330.08" cy="90.92" r="2.49" style="stroke-width: 0.71;stroke: none;fill: #D3D3D3;"/>
<circle cx="354.82" cy="90.92" r="2.49" style="stroke-width: 0.71;stroke: none;fill: #D3D3D3;"/>
<circle cx="429.05" cy="90.92" r="7.23" style="stroke-width: 0.71;stroke: none;fill: #E69F00;"/>
<circle cx="577.50" cy="90.92" r="2.49" style="stroke-width: 0.71;stroke: none;fill: #D3D3D3;"/>
<circle cx="626.99" cy="90.92" r="2.49" style="stroke-width: 0.71;stroke: none;fill: #D3D3D3;"/>
<circle cx="651.73" cy="90.92" r="2.49" style="stroke-width: 0.71;stroke: none;fill: #D3D3D3;"/>
<circle cx="57.91" cy="65.23" r="2.49" style="stroke-width: 0.71;stroke: none;fill: #D3D3D3;"/>
<circle cx="132.13" cy="65.23" r="8.38" style="stroke-width: 0.71;stroke: none;fill: #D55E00;"/>
<circle cx="206.36" cy="65.23" r="6.21" style="stroke-width: 0.71;stroke: none;fill: #56B4E9;"/>
<circle cx="255.85" cy="65.23" r="6.54" style="stroke-width: 0.71;stroke: none;fill: #56B4E9;"/>
<circle cx="280.59" cy="65.23" r="6.94" style="stroke-width: 0.71;stroke: none;fill: #56B4E9;"/>
<circle cx="330.08" cy="65.23" r="2.49" style="stroke-width: 0.71;stroke: none;fill: #D3D3D3;"/>
<circle cx="404.30" cy="65.23" r="6.90" style="stroke-width: 0.71;stroke: none;fill: #56B4E9;"/>
<circle cx="429.05" cy="65.23" r="8.52" style="stroke-width: 0.71;stroke: none;fill: #D55E00;"/>
<circle cx="478.53" cy="65.23" r="7.80" style="stroke-width: 0.71;stroke: none;fill: #E69F00;"/>
<circle cx="577.50" cy="65.23" r="2.49" style="stroke-width: 0.71;stroke: none;fill: #D3D3D3;"/>
<circle cx="651.73" cy="65.23" r="2.49" style="stroke-width: 0.71;stroke: none;fill: #D3D3D3;"/>
<circle cx="676.47" cy="65.23" r="7.10" style="stroke-width: 0.71;stroke: none;fill: #D55E00;"/>
<circle cx="57.91" cy="39.54" r="2.49" style="stroke-width: 0.71;stroke: none;fill: #D3D3D3;"/>
<circle cx="107.39" cy="39.54" r="2.49" style="stroke-width: 0.71;stroke: none;fill: #D3D3D3;"/>
<circle cx="206.36" cy="39.54" r="2.49" style="stroke-width: 0.71;stroke: none;fill: #D3D3D3;"/>
<circle cx="305.33" cy="39.54" r="2.49" style="stroke-width: 0.71;stroke: none;fill: #D3D3D3;"/>
<circle cx="330.08" cy="39.54" r="2.49" style="stroke-width: 0.71;stroke: none;fill: #D3D3D3;"/>
<circle cx="354.82" cy="39.54" r="2.49" style="stroke-width: 0.71;stroke: none;fill: #D3D3D3;"/>
<circle cx="429.05" cy="39.54" r="4.55" style="stroke-width: 0.71;stroke: none;fill: #56B4E9;"/>
<circle cx="453.79" cy="39.54" r="2.49" style="stroke-width: 0.71;stroke: none;fill: #D3D3D3;"/>
<circle cx="528.02" cy="39.54" r="2.49" style="stroke-width: 0.71;stroke: none;fill: #D3D3D3;"/>
<circle cx="577.50" cy="39.54" r="2.49" style="stroke-width: 0.71;stroke: none;fill: #D3D3D3;"/>
<circle cx="651.73" cy="39.54" r="2.49" style="stroke-width: 0.71;stroke: none;fill: #D3D3D3;"/>
</g><g clip-path="url(#c2)">
<g><text x="38.13" y="530.78" text-anchor="end" style="font-family: Arial;font-size: 8.80px;fill: #4D4D4D;" textLength="19.58px" lengthAdjust="spacingAndGlyphs">1101</text></g>
<g><text x="38.13" y="505.10" text-anchor="end" style="font-family: Arial;font-size: 8.80px;fill: #4D4D4D;" textLength="19.58px" lengthAdjust="spacingAndGlyphs">1114</text></g>
<g><text x="38.13" y="479.41" text-anchor="end" style="font-family: Arial;font-size: 8.80px;fill: #4D4D4D;" textLength="19.58px" lengthAdjust="spacingAndGlyphs">1208</text></g>
<g><text x="38.13" y="453.72" text-anchor="end" style="font-family: Arial;font-size: 8.80px;fill: #4D4D4D;" textLength="19.58px" lengthAdjust="spacingAndGlyphs">1234</text></g>
<g><text x="38.13" y="428.03" text-anchor="end" style="font-family: Arial;font-size: 8.80px;fill: #4D4D4D;" textLength="19.58px" lengthAdjust="spacingAndGlyphs">1334</text></g>
<g><text x="38.13" y="402.34" text-anchor="end" style="font-family: Arial;font-size: 8.80px;fill: #4D4D4D;" textLength="19.58px" lengthAdjust="spacingAndGlyphs">1350</text></g>
<g><text x="38.13" y="376.65" text-anchor="end" style="font-family: Arial;font-size: 8.80px;fill: #4D4D4D;" textLength="19.58px" lengthAdjust="spacingAndGlyphs">1362</text></g>
<g><text x="38.13" y="350.96" text-anchor="end" style="font-family: Arial;font-size: 8.80px;fill: #4D4D4D;" textLength="19.58px" lengthAdjust="spacingAndGlyphs">1475</text></g>
<g><text x="38.13" y="325.27" text-anchor="end" style="font-family: Arial;font-size: 8.80px;fill: #4D4D4D;" textLength="19.58px" lengthAdjust="spacingAndGlyphs">1533</text></g>
<g><text x="38.13" y="299.58" text-anchor="end" style="font-family: Arial;font-size: 8.80px;fill: #4D4D4D;" textLength="19.58px" lengthAdjust="spacingAndGlyphs">1703</text></g>
<g><text x="38.13" y="273.89" text-anchor="end" style="font-family: Arial;font-size: 8.80px;fill: #4D4D4D;" textLength="19.58px" lengthAdjust="spacingAndGlyphs">1725</text></g>
<g><text x="38.13" y="248.21" text-anchor="end" style="font-family: Arial;font-size: 8.80px;fill: #4D4D4D;" textLength="19.58px" lengthAdjust="spacingAndGlyphs">1790</text></g>
<g><text x="38.13" y="222.52" text-anchor="end" style="font-family: Arial;font-size: 8.80px;fill: #4D4D4D;" textLength="19.58px" lengthAdjust="spacingAndGlyphs">1847</text></g>
<g><text x="38.13" y="196.83" text-anchor="end" style="font-family: Arial;font-size: 8.80px;fill: #4D4D4D;" textLength="19.58px" lengthAdjust="spacingAndGlyphs">2998</text></g>
<g><text x="38.13" y="171.14" text-anchor="end" style="font-family: Arial;font-size: 8.80px;fill: #4D4D4D;" textLength="14.69px" lengthAdjust="spacingAndGlyphs">428</text></g>
<g><text x="38.13" y="145.45" text-anchor="end" style="font-family: Arial;font-size: 8.80px;fill: #4D4D4D;" textLength="14.69px" lengthAdjust="spacingAndGlyphs">459</text></g>
<g><text x="38.13" y="119.76" text-anchor="end" style="font-family: Arial;font-size: 8.80px;fill: #4D4D4D;" textLength="14.69px" lengthAdjust="spacingAndGlyphs">709</text></g>
<g><text x="38.13" y="94.07" text-anchor="end" style="font-family: Arial;font-size: 8.80px;fill: #4D4D4D;" textLength="14.69px" lengthAdjust="spacingAndGlyphs">939</text></g>
<g><text x="38.13" y="68.38" text-anchor="end" style="font-family: Arial;font-size: 8.80px;fill: #4D4D4D;" textLength="14.69px" lengthAdjust="spacingAndGlyphs">978</text></g>
<g><text x="38.13" y="42.69" text-anchor="end" style="font-family: Arial;font-size: 8.80px;fill: #4D4D4D;" textLength="14.69px" lengthAdjust="spacingAndGlyphs">997</text></g>
<g><text transform="translate(64.21,547.98) rotate(-90.00)" text-anchor="end" style="font-family: Arial;font-size: 8.80px;fill: #4D4D4D;" textLength="19.58px" lengthAdjust="spacingAndGlyphs">1080</text></g>
<g><text transform="translate(88.96,547.98) rotate(-90.00)" text-anchor="end" style="font-family: Arial;font-size: 8.80px;fill: #4D4D4D;" textLength="19.58px" lengthAdjust="spacingAndGlyphs">1101</text></g>
<g><text transform="translate(113.70,547.98) rotate(-90.00)" text-anchor="end" style="font-family: Arial;font-size: 8.80px;fill: #4D4D4D;" textLength="19.58px" lengthAdjust="spacingAndGlyphs">1114</text></g>
<g><text transform="translate(138.44,547.98) rotate(-90.00)" text-anchor="end" style="font-family: Arial;font-size: 8.80px;fill: #4D4D4D;" textLength="19.58px" lengthAdjust="spacingAndGlyphs">1208</text></g>
<g><text transform="translate(163.18,547.98) rotate(-90.00)" text-anchor="end" style="font-family: Arial;font-size: 8.80px;fill: #4D4D4D;" textLength="19.58px" lengthAdjust="spacingAndGlyphs">1234</text></g>
<g><text transform="translate(187.93,547.98) rotate(-90.00)" text-anchor="end" style="font-family: Arial;font-size: 8.80px;fill: #4D4D4D;" textLength="19.58px" lengthAdjust="spacingAndGlyphs">1334</text></g>
<g><text transform="translate(212.67,547.98) rotate(-90.00)" text-anchor="end" style="font-family: Arial;font-size: 8.80px;fill: #4D4D4D;" textLength="19.58px" lengthAdjust="spacingAndGlyphs">1338</text></g>
<g><text transform="translate(237.41,547.98) rotate(-90.00)" text-anchor="end" style="font-family: Arial;font-size: 8.80px;fill: #4D4D4D;" textLength="19.58px" lengthAdjust="spacingAndGlyphs">1350</text></g>
<g><text transform="translate(262.15,547.98) rotate(-90.00)" text-anchor="end" style="font-family: Arial;font-size: 8.80px;fill: #4D4D4D;" textLength="19.58px" lengthAdjust="spacingAndGlyphs">1362</text></g>
<g><text transform="translate(286.90,547.98) rotate(-90.00)" text-anchor="end" style="font-family: Arial;font-size: 8.80px;fill: #4D4D4D;" textLength="19.58px" lengthAdjust="spacingAndGlyphs">1475</text></g>
<g><text transform="translate(311.64,547.98) rotate(-90.00)" text-anchor="end" style="font-family: Arial;font-size: 8.80px;fill: #4D4D4D;" textLength="19.58px" lengthAdjust="spacingAndGlyphs">1533</text></g>
<g><text transform="translate(336.38,547.98) rotate(-90.00)" text-anchor="end" style="font-family: Arial;font-size: 8.80px;fill: #4D4D4D;" textLength="19.58px" lengthAdjust="spacingAndGlyphs">1692</text></g>
<g><text transform="translate(361.13,547.98) rotate(-90.00)" text-anchor="end" style="font-family: Arial;font-size: 8.80px;fill: #4D4D4D;" textLength="19.58px" lengthAdjust="spacingAndGlyphs">1703</text></g>
<g><text transform="translate(385.87,547.98) rotate(-90.00)" text-anchor="end" style="font-family: Arial;font-size: 8.80px;fill: #4D4D4D;" textLength="19.58px" lengthAdjust="spacingAndGlyphs">1725</text></g>
<g><text transform="translate(410.61,547.98) rotate(-90.00)" text-anchor="end" style="font-family: Arial;font-size: 8.80px;fill: #4D4D4D;" textLength="19.58px" lengthAdjust="spacingAndGlyphs">1790</text></g>
<g><text transform="translate(435.35,547.98) rotate(-90.00)" text-anchor="end" style="font-family: Arial;font-size: 8.80px;fill: #4D4D4D;" textLength="19.58px" lengthAdjust="spacingAndGlyphs">1847</text></g>
<g><text transform="translate(460.10,547.98) rotate(-90.00)" text-anchor="end" style="font-family: Arial;font-size: 8.80px;fill: #4D4D4D;" textLength="19.58px" lengthAdjust="spacingAndGlyphs">2751</text></g>
<g><text transform="translate(484.84,547.98) rotate(-90.00)" text-anchor="end" style="font-family: Arial;font-size: 8.80px;fill: #4D4D4D;" textLength="19.58px" lengthAdjust="spacingAndGlyphs">2998</text></g>
<g><text transform="translate(509.58,547.98) rotate(-90.00)" text-anchor="end" style="font-family: Arial;font-size: 8.80px;fill: #4D4D4D;" textLength="19.58px" lengthAdjust="spacingAndGlyphs">3044</text></g>
<g><text transform="translate(534.33,547.98) rotate(-90.00)" text-anchor="end" style="font-family: Arial;font-size: 8.80px;fill: #4D4D4D;" textLength="14.69px" lengthAdjust="spacingAndGlyphs">428</text></g>
<g><text transform="translate(559.07,547.98) rotate(-90.00)" text-anchor="end" style="font-family: Arial;font-size: 8.80px;fill: #4D4D4D;" textLength="14.69px" lengthAdjust="spacingAndGlyphs">459</text></g>
<g><text transform="translate(583.81,547.98) rotate(-90.00)" text-anchor="end" style="font-family: Arial;font-size: 8.80px;fill: #4D4D4D;" textLength="14.69px" lengthAdjust="spacingAndGlyphs">638</text></g>
<g><text transform="translate(608.55,547.98) rotate(-90.00)" text-anchor="end" style="font-family: Arial;font-size: 8.80px;fill: #4D4D4D;" textLength="14.69px" lengthAdjust="spacingAndGlyphs">709</text></g>
<g><text transform="translate(633.30,547.98) rotate(-90.00)" text-anchor="end" style="font-family: Arial;font-size: 8.80px;fill: #4D4D4D;" textLength="14.69px" lengthAdjust="spacingAndGlyphs">939</text></g>
<g><text transform="translate(658.04,547.98) rotate(-90.00)" text-anchor="end" style="font-family: Arial;font-size: 8.80px;fill: #4D4D4D;" textLength="14.69px" lengthAdjust="spacingAndGlyphs">978</text></g>
<g><text transform="translate(682.78,547.98) rotate(-90.00)" text-anchor="end" style="font-family: Arial;font-size: 8.80px;fill: #4D4D4D;" textLength="14.69px" lengthAdjust="spacingAndGlyphs">997</text></g>
<g><text x="367.19" y="578.19" text-anchor="middle" style="font-family: Arial;font-size: 11.00px;" textLength="55.63px" lengthAdjust="spacingAndGlyphs">Drop Strain</text></g>
<g><text transform="translate(13.37,283.59) rotate(-90.00)" text-anchor="middle" style="font-family: Arial;font-size: 11.00px;" textLength="56.86px" lengthAdjust="spacingAndGlyphs">Plate Strain</text></g>
<g><text x="224.51" y="614.13" style="font-family: Arial;font-size: 11.00px;" textLength="67.26px" lengthAdjust="spacingAndGlyphs">Halo Strength</text></g>
<circle cx="305.89" cy="610.19" r="5.69" style="stroke-width: 0.71;stroke: none;fill: #D3D3D3;"/>
<circle cx="365.91" cy="610.19" r="5.69" style="stroke-width: 0.71;stroke: none;fill: #56B4E9;"/>
<circle cx="410.29" cy="610.19" r="5.69" style="stroke-width: 0.71;stroke: none;fill: #E69F00;"/>
<circle cx="469.83" cy="610.19" r="5.69" style="stroke-width: 0.71;stroke: none;fill: #D55E00;"/>
<g><text x="320.01" y="613.34" style="font-family: Arial;font-size: 8.80px;" textLength="31.78px" lengthAdjust="spacingAndGlyphs">No Halo</text></g>
<g><text x="380.03" y="613.34" style="font-family: Arial;font-size: 8.80px;" textLength="16.14px" lengthAdjust="spacingAndGlyphs">Low</text></g>
<g><text x="424.41" y="613.34" style="font-family: Arial;font-size: 8.80px;" textLength="31.30px" lengthAdjust="spacingAndGlyphs">Medium</text></g>
<g><text x="483.95" y="613.34" style="font-family: Arial;font-size: 8.80px;" textLength="25.93px" lengthAdjust="spacingAndGlyphs">Strong</text></g>
<g><text x="265.95" y="669.89" style="font-family: Arial;font-size: 11.00px;" textLength="75.79px" lengthAdjust="spacingAndGlyphs">Halo Size (mm)</text></g>
<circle cx="357.25" cy="665.94" r="7.91" style="stroke-width: 0.71;stroke: none;fill: #000000;"/>
<circle cx="418.15" cy="665.94" r="10.15" style="stroke-width: 0.71;stroke: none;fill: #000000;"/>
<g><text x="372.76" y="669.09" style="font-family: Arial;font-size: 8.80px;" textLength="26.89px" lengthAdjust="spacingAndGlyphs">50 mm</text></g>
<g><text x="436.65" y="669.09" style="font-family: Arial;font-size: 8.80px;" textLength="31.79px" lengthAdjust="spacingAndGlyphs">100 mm</text></g>
<g><text x="367.19" y="15.55" text-anchor="middle" style="font-family: Arial;font-size: 14.00px;font-weight: bold;" textLength="197.55px" lengthAdjust="spacingAndGlyphs">Bacterial Interaction Heatmap</text></g>
</g>
</svg>