<svg xmlns="http://www.w3.org/2000/svg" xmlns:xlink="http://www.w3.org/1999/xlink" class="httpgd" width="340.00" height="333.00" viewBox="0 0 340.00 333.00">
<defs>
  <style type='text/css'><![CDATA[
    .httpgd line, .httpgd polyline, .httpgd polygon, .httpgd path, .httpgd rect, .httpgd circle {
      fill: none;
      stroke: #000000;
      stroke-linecap: round;
      stroke-linejoin: round;
      stroke-miterlimit: 10.00;
    }
  ]]></style>
<clipPath id="c0"><rect x="0.00" y="0.00" width="340.00" height="333.00"/></clipPath>
<clipPath id="c1"><rect x="45.09" y="27.82" width="284.95" height="164.67"/></clipPath>
<clipPath id="c2"><rect x="0.00" y="0.00" width="340.00" height="333.00"/></clipPath>
</defs>
<rect width="100%" height="100%" style="stroke: none;fill: #FFFFFF;"/>
<g clip-path="url(#c0)">
</g><g clip-path="url(#c1)">
<polyline points="45.09,170.66 330.04,170.66" style="stroke-width: 0.53;stroke: #EBEBEB;stroke-linecap: butt;"/>
<polyline points="45.09,136.52 330.04,136.52" style="stroke-width: 0.53;stroke: #EBEBEB;stroke-linecap: butt;"/>
<polyline points="45.09,102.37 330.04,102.37" style="stroke-width: 0.53;stroke: #EBEBEB;stroke-linecap: butt;"/>
<polyline points="45.09,68.22 330.04,68.22" style="stroke-width: 0.53;stroke: #EBEBEB;stroke-linecap: butt;"/>
<polyline points="45.09,34.07 330.04,34.07" style="stroke-width: 0.53;stroke: #EBEBEB;stroke-linecap: butt;"/>
<polyline points="45.09,187.74 330.04,187.74" style="stroke-width: 1.07;stroke: #EBEBEB;stroke-linecap: butt;"/>
<polyline points="45.09,153.59 330.04,153.59" style="stroke-width: 1.07;stroke: #EBEBEB;stroke-linecap: butt;"/>
<polyline points="45.09,119.44 330.04,119.44" style="stroke-width: 1.07;stroke: #EBEBEB;stroke-linecap: butt;"/>
<polyline points="45.09,85.30 330.04,85.30" style="stroke-width: 1.07;stroke: #EBEBEB;stroke-linecap: butt;"/>
<polyline points="45.09,51.15 330.04,51.15" style="stroke-width: 1.07;stroke: #EBEBEB;stroke-linecap: butt;"/>
<polyline points="51.15,192.49 51.15,27.82" style="stroke-width: 1.07;stroke: #EBEBEB;stroke-linecap: butt;"/>
<polyline points="61.25,192.49 61.25,27.82" style="stroke-width: 1.07;stroke: #EBEBEB;stroke-linecap: butt;"/>
<polyline points="71.36,192.49 71.36,27.82" style="stroke-width: 1.07;stroke: #EBEBEB;stroke-linecap: butt;"/>
<polyline points="81.46,192.49 81.46,27.82" style="stroke-width: 1.07;stroke: #EBEBEB;stroke-linecap: butt;"/>
<polyline points="91.57,192.49 91.57,27.82" style="stroke-width: 1.07;stroke: #EBEBEB;stroke-linecap: butt;"/>
<polyline points="101.67,192.49 101.67,27.82" style="stroke-width: 1.07;stroke: #EBEBEB;stroke-linecap: butt;"/>
<polyline points="111.78,192.49 111.78,27.82" style="stroke-width: 1.07;stroke: #EBEBEB;stroke-linecap: butt;"/>
<polyline points="121.88,192.49 121.88,27.82" style="stroke-width: 1.07;stroke: #EBEBEB;stroke-linecap: butt;"/>
<polyline points="131.99,192.49 131.99,27.82" style="stroke-width: 1.07;stroke: #EBEBEB;stroke-linecap: butt;"/>
<polyline points="142.09,192.49 142.09,27.82" style="stroke-width: 1.07;stroke: #EBEBEB;stroke-linecap: butt;"/>
<polyline points="152.20,192.49 152.20,27.82" style="stroke-width: 1.07;stroke: #EBEBEB;stroke-linecap: butt;"/>
<polyline points="162.30,192.49 162.30,27.82" style="stroke-width: 1.07;stroke: #EBEBEB;stroke-linecap: butt;"/>
<polyline points="172.41,192.49 172.41,27.82" style="stroke-width: 1.07;stroke: #EBEBEB;stroke-linecap: butt;"/>
<polyline points="182.51,192.49 182.51,27.82" style="stroke-width: 1.07;stroke: #EBEBEB;stroke-linecap: butt;"/>
<polyline points="192.61,192.49 192.61,27.82" style="stroke-width: 1.07;stroke: #EBEBEB;stroke-linecap: butt;"/>
<polyline points="202.72,192.49 202.72,27.82" style="stroke-width: 1.07;stroke: #EBEBEB;stroke-linecap: butt;"/>
<polyline points="212.82,192.49 212.82,27.82" style="stroke-width: 1.07;stroke: #EBEBEB;stroke-linecap: butt;"/>
<polyline points="222.93,192.49 222.93,27.82" style="stroke-width: 1.07;stroke: #EBEBEB;stroke-linecap: butt;"/>
<polyline points="233.03,192.49 233.03,27.82" style="stroke-width: 1.07;stroke: #EBEBEB;stroke-linecap: butt;"/>
<polyline points="243.14,192.49 243.14,27.82" style="stroke-width: 1.07;stroke: #EBEBEB;stroke-linecap: butt;"/>
<polyline points="253.24,192.49 253.24,27.82" style="stroke-width: 1.07;stroke: #EBEBEB;stroke-linecap: butt;"/>
<polyline points="263.35,192.49 263.35,27.82" style="stroke-width: 1.07;stroke: #EBEBEB;stroke-linecap: butt;"/>
<polyline points="273.45,192.49 273.45,27.82" style="stroke-width: 1.07;stroke: #EBEBEB;stroke-linecap: butt;"/>
<polyline points="283.56,192.49 283.56,27.82" style="stroke-width: 1.07;stroke: #EBEBEB;stroke-linecap: butt;"/>
<polyline points="293.66,192.49 293.66,27.82" style="stroke-width: 1.07;stroke: #EBEBEB;stroke-linecap: butt;"/>
<polyline points="303.77,192.49 303.77,27.82" style="stroke-width: 1.07;stroke: #EBEBEB;stroke-linecap: butt;"/>
<polyline points="313.87,192.49 313.87,27.82" style="stroke-width: 1.07;stroke: #EBEBEB;stroke-linecap: butt;"/>
<polyline points="323.97,192.49 323.97,27.82" style="stroke-width: 1.07;stroke: #EBEBEB;stroke-linecap: butt;"/>
<line x1="51.15" y1="105.13" x2="51.15" y2="85.71" style="stroke-width: 1.07;stroke: #333333;stroke-linecap: butt;"/>
<line x1="51.15" y1="125.52" x2="51.15" y2="136.24" style="stroke-width: 1.07;stroke: #333333;stroke-linecap: butt;"/>
<polygon points="47.74,105.13 47.74,125.52 54.56,125.52 54.56,105.13 47.74,105.13" style="stroke-width: 1.07;stroke: #333333;stroke-linecap: butt;stroke-linejoin: miter;fill: #BEBEBE;fill-opacity: 0.70;" />
<line x1="47.74" y1="117.94" x2="54.56" y2="117.94" style="stroke-width: 2.13;stroke: #333333;stroke-linecap: butt;stroke-linejoin: miter;"/>
<line x1="61.25" y1="119.07" x2="61.25" y2="101.96" style="stroke-width: 1.07;stroke: #333333;stroke-linecap: butt;"/>
<line x1="61.25" y1="130.92" x2="61.25" y2="137.47" style="stroke-width: 1.07;stroke: #333333;stroke-linecap: butt;"/>
<polygon points="57.84,119.07 57.84,130.92 64.67,130.92 64.67,119.07 57.84,119.07" style="stroke-width: 1.07;stroke: #333333;stroke-linecap: butt;stroke-linejoin: miter;fill: #FFE680;fill-opacity: 0.70;" />
<line x1="57.84" y1="126.75" x2="64.67" y2="126.75" style="stroke-width: 2.13;stroke: #333333;stroke-linecap: butt;stroke-linejoin: miter;"/>
<circle cx="71.36" cy="160.91" r="1.95" style="stroke-width: 0.71;stroke: #333333;stroke-opacity: 0.70;fill: #333333;fill-opacity: 0.70;"/>
<line x1="71.36" y1="106.84" x2="71.36" y2="98.54" style="stroke-width: 1.07;stroke: #333333;stroke-linecap: butt;"/>
<line x1="71.36" y1="119.95" x2="71.36" y2="130.92" style="stroke-width: 1.07;stroke: #333333;stroke-linecap: butt;"/>
<polygon points="67.95,106.84 67.95,119.95 74.77,119.95 74.77,106.84 67.95,106.84" style="stroke-width: 1.07;stroke: #333333;stroke-linecap: butt;stroke-linejoin: miter;fill: #D35F5F;fill-opacity: 0.70;" />
<line x1="67.95" y1="110.15" x2="74.77" y2="110.15" style="stroke-width: 2.13;stroke: #333333;stroke-linecap: butt;stroke-linejoin: miter;"/>
<line x1="81.46" y1="88.51" x2="81.46" y2="64.94" style="stroke-width: 1.07;stroke: #333333;stroke-linecap: butt;"/>
<line x1="81.46" y1="126.65" x2="81.46" y2="152.36" style="stroke-width: 1.07;stroke: #333333;stroke-linecap: butt;"/>
<polygon points="78.05,88.51 78.05,126.65 84.87,126.65 84.87,88.51 78.05,88.51" style="stroke-width: 1.07;stroke: #333333;stroke-linecap: butt;stroke-linejoin: miter;fill: #AFC6E9;fill-opacity: 0.70;" />
<line x1="78.05" y1="101.89" x2="84.87" y2="101.89" style="stroke-width: 2.13;stroke: #333333;stroke-linecap: butt;stroke-linejoin: miter;"/>
<line x1="91.57" y1="101.41" x2="91.57" y2="94.17" style="stroke-width: 1.07;stroke: #333333;stroke-linecap: butt;"/>
<line x1="91.57" y1="136.31" x2="91.57" y2="157.96" style="stroke-width: 1.07;stroke: #333333;stroke-linecap: butt;"/>
<polygon points="88.16,101.41 88.16,136.31 94.98,136.31 94.98,101.41 88.16,101.41" style="stroke-width: 1.07;stroke: #333333;stroke-linecap: butt;stroke-linejoin: miter;fill: #87DECD;fill-opacity: 0.70;" />
<line x1="88.16" y1="122.45" x2="94.98" y2="122.45" style="stroke-width: 2.13;stroke: #333333;stroke-linecap: butt;stroke-linejoin: miter;"/>
<line x1="101.67" y1="81.71" x2="101.67" y2="49.10" style="stroke-width: 1.07;stroke: #333333;stroke-linecap: butt;"/>
<line x1="101.67" y1="119.45" x2="101.67" y2="147.72" style="stroke-width: 1.07;stroke: #333333;stroke-linecap: butt;"/>
<polygon points="98.26,81.71 98.26,119.45 105.08,119.45 105.08,81.71 98.26,81.71" style="stroke-width: 1.07;stroke: #333333;stroke-linecap: butt;stroke-linejoin: miter;fill: #DDAFE9;fill-opacity: 0.70;" />
<line x1="98.26" y1="104.35" x2="105.08" y2="104.35" style="stroke-width: 2.13;stroke: #333333;stroke-linecap: butt;stroke-linejoin: miter;"/>
<line x1="111.78" y1="90.93" x2="111.78" y2="54.02" style="stroke-width: 1.07;stroke: #333333;stroke-linecap: butt;"/>
<line x1="111.78" y1="134.02" x2="111.78" y2="161.79" style="stroke-width: 1.07;stroke: #333333;stroke-linecap: butt;"/>
<polygon points="108.37,90.93 108.37,134.02 115.19,134.02 115.19,90.93 108.37,90.93" style="stroke-width: 1.07;stroke: #333333;stroke-linecap: butt;stroke-linejoin: miter;fill: #87DECD;fill-opacity: 0.70;" />
<line x1="108.37" y1="99.57" x2="115.19" y2="99.57" style="stroke-width: 2.13;stroke: #333333;stroke-linecap: butt;stroke-linejoin: miter;"/>
<line x1="121.88" y1="108.93" x2="121.88" y2="85.98" style="stroke-width: 1.07;stroke: #333333;stroke-linecap: butt;"/>
<line x1="121.88" y1="125.11" x2="121.88" y2="134.47" style="stroke-width: 1.07;stroke: #333333;stroke-linecap: butt;"/>
<polygon points="118.47,108.93 118.47,125.11 125.29,125.11 125.29,108.93 118.47,108.93" style="stroke-width: 1.07;stroke: #333333;stroke-linecap: butt;stroke-linejoin: miter;fill: #87DECD;fill-opacity: 0.70;" />
<line x1="118.47" y1="115.14" x2="125.29" y2="115.14" style="stroke-width: 2.13;stroke: #333333;stroke-linecap: butt;stroke-linejoin: miter;"/>
<line x1="131.99" y1="86.66" x2="131.99" y2="73.14" style="stroke-width: 1.07;stroke: #333333;stroke-linecap: butt;"/>
<line x1="131.99" y1="119.68" x2="131.99" y2="135.42" style="stroke-width: 1.07;stroke: #333333;stroke-linecap: butt;"/>
<polygon points="128.58,86.66 128.58,119.68 135.40,119.68 135.40,86.66 128.58,86.66" style="stroke-width: 1.07;stroke: #333333;stroke-linecap: butt;stroke-linejoin: miter;fill: #FFE680;fill-opacity: 0.70;" />
<line x1="128.58" y1="106.94" x2="135.40" y2="106.94" style="stroke-width: 2.13;stroke: #333333;stroke-linecap: butt;stroke-linejoin: miter;"/>
<line x1="142.09" y1="89.19" x2="142.09" y2="53.06" style="stroke-width: 1.07;stroke: #333333;stroke-linecap: butt;"/>
<line x1="142.09" y1="117.26" x2="142.09" y2="140.20" style="stroke-width: 1.07;stroke: #333333;stroke-linecap: butt;"/>
<polygon points="138.68,89.19 138.68,117.26 145.50,117.26 145.50,89.19 138.68,89.19" style="stroke-width: 1.07;stroke: #333333;stroke-linecap: butt;stroke-linejoin: miter;fill: #AFC6E9;fill-opacity: 0.70;" />
<line x1="138.68" y1="108.04" x2="145.50" y2="108.04" style="stroke-width: 2.13;stroke: #333333;stroke-linecap: butt;stroke-linejoin: miter;"/>
<circle cx="152.20" cy="185.01" r="1.95" style="stroke-width: 0.71;stroke: #333333;stroke-opacity: 0.70;fill: #333333;fill-opacity: 0.70;"/>
<line x1="152.20" y1="126.34" x2="152.20" y2="105.10" style="stroke-width: 1.07;stroke: #333333;stroke-linecap: butt;"/>
<line x1="152.20" y1="148.40" x2="152.20" y2="152.50" style="stroke-width: 1.07;stroke: #333333;stroke-linecap: butt;"/>
<polygon points="148.79,126.34 148.79,148.40 155.61,148.40 155.61,126.34 148.79,126.34" style="stroke-width: 1.07;stroke: #333333;stroke-linecap: butt;stroke-linejoin: miter;fill: #87DECD;fill-opacity: 0.70;" />
<line x1="148.79" y1="139.32" x2="155.61" y2="139.32" style="stroke-width: 2.13;stroke: #333333;stroke-linecap: butt;stroke-linejoin: miter;"/>
<line x1="162.30" y1="97.93" x2="162.30" y2="89.94" style="stroke-width: 1.07;stroke: #333333;stroke-linecap: butt;"/>
<line x1="162.30" y1="133.55" x2="162.30" y2="138.57" style="stroke-width: 1.07;stroke: #333333;stroke-linecap: butt;"/>
<polygon points="158.89,97.93 158.89,133.55 165.71,133.55 165.71,97.93 158.89,97.93" style="stroke-width: 1.07;stroke: #333333;stroke-linecap: butt;stroke-linejoin: miter;fill: #87DECD;fill-opacity: 0.70;" />
<line x1="158.89" y1="116.23" x2="165.71" y2="116.23" style="stroke-width: 2.13;stroke: #333333;stroke-linecap: butt;stroke-linejoin: miter;"/>
<line x1="172.41" y1="98.68" x2="172.41" y2="78.47" style="stroke-width: 1.07;stroke: #333333;stroke-linecap: butt;"/>
<line x1="172.41" y1="130.03" x2="172.41" y2="160.01" style="stroke-width: 1.07;stroke: #333333;stroke-linecap: butt;"/>
<polygon points="169.00,98.68 169.00,130.03 175.82,130.03 175.82,98.68 169.00,98.68" style="stroke-width: 1.07;stroke: #333333;stroke-linecap: butt;stroke-linejoin: miter;fill: #F2B134;fill-opacity: 0.70;" />
<line x1="169.00" y1="110.98" x2="175.82" y2="110.98" style="stroke-width: 2.13;stroke: #333333;stroke-linecap: butt;stroke-linejoin: miter;"/>
<line x1="182.51" y1="90.55" x2="182.51" y2="78.33" style="stroke-width: 1.07;stroke: #333333;stroke-linecap: butt;"/>
<line x1="182.51" y1="123.13" x2="182.51" y2="146.21" style="stroke-width: 1.07;stroke: #333333;stroke-linecap: butt;"/>
<polygon points="179.10,90.55 179.10,123.13 185.92,123.13 185.92,90.55 179.10,90.55" style="stroke-width: 1.07;stroke: #333333;stroke-linecap: butt;stroke-linejoin: miter;fill: #AFC6E9;fill-opacity: 0.70;" />
<line x1="179.10" y1="105.37" x2="185.92" y2="105.37" style="stroke-width: 2.13;stroke: #333333;stroke-linecap: butt;stroke-linejoin: miter;"/>
<line x1="192.61" y1="90.59" x2="192.61" y2="75.87" style="stroke-width: 1.07;stroke: #333333;stroke-linecap: butt;"/>
<line x1="192.61" y1="125.56" x2="192.61" y2="141.30" style="stroke-width: 1.07;stroke: #333333;stroke-linecap: butt;"/>
<polygon points="189.20,90.59 189.20,125.56 196.03,125.56 196.03,90.59 189.20,90.59" style="stroke-width: 1.07;stroke: #333333;stroke-linecap: butt;stroke-linejoin: miter;fill: #87DECD;fill-opacity: 0.70;" />
<line x1="189.20" y1="104.01" x2="196.03" y2="104.01" style="stroke-width: 2.13;stroke: #333333;stroke-linecap: butt;stroke-linejoin: miter;"/>
<line x1="202.72" y1="61.77" x2="202.72" y2="57.16" style="stroke-width: 1.07;stroke: #333333;stroke-linecap: butt;"/>
<line x1="202.72" y1="96.50" x2="202.72" y2="104.69" style="stroke-width: 1.07;stroke: #333333;stroke-linecap: butt;"/>
<polygon points="199.31,61.77 199.31,96.50 206.13,96.50 206.13,61.77 199.31,61.77" style="stroke-width: 1.07;stroke: #333333;stroke-linecap: butt;stroke-linejoin: miter;fill: #AFC6E9;fill-opacity: 0.70;" />
<line x1="199.31" y1="78.53" x2="206.13" y2="78.53" style="stroke-width: 2.13;stroke: #333333;stroke-linecap: butt;stroke-linejoin: miter;"/>
<line x1="212.82" y1="93.53" x2="212.82" y2="86.68" style="stroke-width: 1.07;stroke: #333333;stroke-linecap: butt;"/>
<line x1="212.82" y1="120.23" x2="212.82" y2="132.01" style="stroke-width: 1.07;stroke: #333333;stroke-linecap: butt;"/>
<polygon points="209.41,93.53 209.41,120.23 216.23,120.23 216.23,93.53 209.41,93.53" style="stroke-width: 1.07;stroke: #333333;stroke-linecap: butt;stroke-linejoin: miter;fill: #AFC6E9;fill-opacity: 0.70;" />
<line x1="209.41" y1="106.06" x2="216.23" y2="106.06" style="stroke-width: 2.13;stroke: #333333;stroke-linecap: butt;stroke-linejoin: miter;"/>
<circle cx="222.93" cy="69.59" r="1.95" style="stroke-width: 0.71;stroke: #333333;stroke-opacity: 0.70;fill: #333333;fill-opacity: 0.70;"/>
<line x1="222.93" y1="110.87" x2="222.93" y2="110.87" style="stroke-width: 1.07;stroke: #333333;stroke-linecap: butt;"/>
<line x1="222.93" y1="129.00" x2="222.93" y2="133.51" style="stroke-width: 1.07;stroke: #333333;stroke-linecap: butt;"/>
<polygon points="219.52,110.87 219.52,129.00 226.34,129.00 226.34,110.87 219.52,110.87" style="stroke-width: 1.07;stroke: #333333;stroke-linecap: butt;stroke-linejoin: miter;fill: #FFE680;fill-opacity: 0.70;" />
<line x1="219.52" y1="126.07" x2="226.34" y2="126.07" style="stroke-width: 2.13;stroke: #333333;stroke-linecap: butt;stroke-linejoin: miter;"/>
<line x1="233.03" y1="115.79" x2="233.03" y2="106.19" style="stroke-width: 1.07;stroke: #333333;stroke-linecap: butt;"/>
<line x1="233.03" y1="159.39" x2="233.03" y2="167.52" style="stroke-width: 1.07;stroke: #333333;stroke-linecap: butt;"/>
<polygon points="229.62,115.79 229.62,159.39 236.44,159.39 236.44,115.79 229.62,115.79" style="stroke-width: 1.07;stroke: #333333;stroke-linecap: butt;stroke-linejoin: miter;fill: #FFE680;fill-opacity: 0.70;" />
<line x1="229.62" y1="122.45" x2="236.44" y2="122.45" style="stroke-width: 2.13;stroke: #333333;stroke-linecap: butt;stroke-linejoin: miter;"/>
<line x1="243.14" y1="93.59" x2="243.14" y2="91.85" style="stroke-width: 1.07;stroke: #333333;stroke-linecap: butt;"/>
<line x1="243.14" y1="125.62" x2="243.14" y2="145.39" style="stroke-width: 1.07;stroke: #333333;stroke-linecap: butt;"/>
<polygon points="239.73,93.59 239.73,125.62 246.55,125.62 246.55,93.59 239.73,93.59" style="stroke-width: 1.07;stroke: #333333;stroke-linecap: butt;stroke-linejoin: miter;fill: #F2B134;fill-opacity: 0.70;" />
<line x1="239.73" y1="106.60" x2="246.55" y2="106.60" style="stroke-width: 2.13;stroke: #333333;stroke-linecap: butt;stroke-linejoin: miter;"/>
<circle cx="253.24" cy="35.30" r="1.95" style="stroke-width: 0.71;stroke: #333333;stroke-opacity: 0.70;fill: #333333;fill-opacity: 0.70;"/>
<line x1="253.24" y1="109.81" x2="253.24" y2="101.82" style="stroke-width: 1.07;stroke: #333333;stroke-linecap: butt;"/>
<line x1="253.24" y1="139.15" x2="253.24" y2="145.39" style="stroke-width: 1.07;stroke: #333333;stroke-linecap: butt;"/>
<polygon points="249.83,109.81 249.83,139.15 256.65,139.15 256.65,109.81 249.83,109.81" style="stroke-width: 1.07;stroke: #333333;stroke-linecap: butt;stroke-linejoin: miter;fill: #FFE680;fill-opacity: 0.70;" />
<line x1="249.83" y1="117.46" x2="256.65" y2="117.46" style="stroke-width: 2.13;stroke: #333333;stroke-linecap: butt;stroke-linejoin: miter;"/>
<line x1="263.35" y1="59.99" x2="263.35" y2="48.42" style="stroke-width: 1.07;stroke: #333333;stroke-linecap: butt;"/>
<line x1="263.35" y1="105.20" x2="263.35" y2="132.96" style="stroke-width: 1.07;stroke: #333333;stroke-linecap: butt;"/>
<polygon points="259.94,59.99 259.94,105.20 266.76,105.20 266.76,59.99 259.94,59.99" style="stroke-width: 1.07;stroke: #333333;stroke-linecap: butt;stroke-linejoin: miter;fill: #87DECD;fill-opacity: 0.70;" />
<line x1="259.94" y1="79.90" x2="266.76" y2="79.90" style="stroke-width: 2.13;stroke: #333333;stroke-linecap: butt;stroke-linejoin: miter;"/>
<circle cx="273.45" cy="144.71" r="1.95" style="stroke-width: 0.71;stroke: #333333;stroke-opacity: 0.70;fill: #333333;fill-opacity: 0.70;"/>
<line x1="273.45" y1="95.10" x2="273.45" y2="84.20" style="stroke-width: 1.07;stroke: #333333;stroke-linecap: butt;"/>
<line x1="273.45" y1="112.85" x2="273.45" y2="113.98" style="stroke-width: 1.07;stroke: #333333;stroke-linecap: butt;"/>
<polygon points="270.04,95.10 270.04,112.85 276.86,112.85 276.86,95.10 270.04,95.10" style="stroke-width: 1.07;stroke: #333333;stroke-linecap: butt;stroke-linejoin: miter;fill: #87DECD;fill-opacity: 0.70;" />
<line x1="270.04" y1="98.95" x2="276.86" y2="98.95" style="stroke-width: 2.13;stroke: #333333;stroke-linecap: butt;stroke-linejoin: miter;"/>
<circle cx="283.56" cy="144.44" r="1.95" style="stroke-width: 0.71;stroke: #333333;stroke-opacity: 0.70;fill: #333333;fill-opacity: 0.70;"/>
<line x1="283.56" y1="98.82" x2="283.56" y2="95.54" style="stroke-width: 1.07;stroke: #333333;stroke-linecap: butt;"/>
<line x1="283.56" y1="112.89" x2="283.56" y2="112.89" style="stroke-width: 1.07;stroke: #333333;stroke-linecap: butt;"/>
<polygon points="280.15,98.82 280.15,112.89 286.97,112.89 286.97,98.82 280.15,98.82" style="stroke-width: 1.07;stroke: #333333;stroke-linecap: butt;stroke-linejoin: miter;fill: #DDAFE9;fill-opacity: 0.70;" />
<line x1="280.15" y1="101.14" x2="286.97" y2="101.14" style="stroke-width: 2.13;stroke: #333333;stroke-linecap: butt;stroke-linejoin: miter;"/>
<line x1="293.66" y1="111.08" x2="293.66" y2="90.76" style="stroke-width: 1.07;stroke: #333333;stroke-linecap: butt;"/>
<line x1="293.66" y1="142.59" x2="293.66" y2="160.83" style="stroke-width: 1.07;stroke: #333333;stroke-linecap: butt;"/>
<polygon points="290.25,111.08 290.25,142.59 297.07,142.59 297.07,111.08 290.25,111.08" style="stroke-width: 1.07;stroke: #333333;stroke-linecap: butt;stroke-linejoin: miter;fill: #AFC6E9;fill-opacity: 0.70;" />
<line x1="290.25" y1="131.80" x2="297.07" y2="131.80" style="stroke-width: 2.13;stroke: #333333;stroke-linecap: butt;stroke-linejoin: miter;"/>
<line x1="301.87" y1="93.93" x2="301.87" y2="65.12" style="stroke-width: 1.07;stroke: #333333;stroke-linecap: butt;"/>
<line x1="301.87" y1="130.37" x2="301.87" y2="144.03" style="stroke-width: 1.07;stroke: #333333;stroke-linecap: butt;"/>
<polygon points="300.17,93.93 300.17,130.37 303.58,130.37 303.58,93.93 300.17,93.93" style="stroke-width: 1.07;stroke: #333333;stroke-linecap: butt;stroke-linejoin: miter;fill: #87DECD;fill-opacity: 0.70;" />
<line x1="300.17" y1="108.11" x2="303.58" y2="108.11" style="stroke-width: 2.13;stroke: #333333;stroke-linecap: butt;stroke-linejoin: miter;"/>
<line x1="305.66" y1="93.93" x2="305.66" y2="65.12" style="stroke-width: 1.07;stroke: #333333;stroke-linecap: butt;"/>
<line x1="305.66" y1="130.37" x2="305.66" y2="144.03" style="stroke-width: 1.07;stroke: #333333;stroke-linecap: butt;"/>
<polygon points="303.95,93.93 303.95,130.37 307.37,130.37 307.37,93.93 303.95,93.93" style="stroke-width: 1.07;stroke: #333333;stroke-linecap: butt;stroke-linejoin: miter;fill: #DDAFE9;fill-opacity: 0.70;" />
<line x1="303.95" y1="108.11" x2="307.37" y2="108.11" style="stroke-width: 2.13;stroke: #333333;stroke-linecap: butt;stroke-linejoin: miter;"/>
<line x1="313.87" y1="95.61" x2="313.87" y2="68.77" style="stroke-width: 1.07;stroke: #333333;stroke-linecap: butt;"/>
<line x1="313.87" y1="132.59" x2="313.87" y2="151.95" style="stroke-width: 1.07;stroke: #333333;stroke-linecap: butt;"/>
<polygon points="310.46,95.61 310.46,132.59 317.28,132.59 317.28,95.61 310.46,95.61" style="stroke-width: 1.07;stroke: #333333;stroke-linecap: butt;stroke-linejoin: miter;fill: #87DECD;fill-opacity: 0.70;" />
<line x1="310.46" y1="119.58" x2="317.28" y2="119.58" style="stroke-width: 2.13;stroke: #333333;stroke-linecap: butt;stroke-linejoin: miter;"/>
<circle cx="323.97" cy="161.65" r="1.95" style="stroke-width: 0.71;stroke: #333333;stroke-opacity: 0.70;fill: #333333;fill-opacity: 0.70;"/>
<line x1="323.97" y1="97.21" x2="323.97" y2="84.75" style="stroke-width: 1.07;stroke: #333333;stroke-linecap: butt;"/>
<line x1="323.97" y1="118.38" x2="323.97" y2="120.13" style="stroke-width: 1.07;stroke: #333333;stroke-linecap: butt;"/>
<polygon points="320.56,97.21 320.56,118.38 327.38,118.38 327.38,97.21 320.56,97.21" style="stroke-width: 1.07;stroke: #333333;stroke-linecap: butt;stroke-linejoin: miter;fill: #87DECD;fill-opacity: 0.70;" />
<line x1="320.56" y1="105.05" x2="327.38" y2="105.05" style="stroke-width: 2.13;stroke: #333333;stroke-linecap: butt;stroke-linejoin: miter;"/>
</g><g clip-path="url(#c2)">
<g><text x="40.16" y="190.89" text-anchor="end" style="font-family: Arial;font-size: 8.80px;fill: #4D4D4D;" textLength="12.23px" lengthAdjust="spacingAndGlyphs">7.5</text></g>
<g><text x="40.16" y="156.74" text-anchor="end" style="font-family: Arial;font-size: 8.80px;fill: #4D4D4D;" textLength="17.13px" lengthAdjust="spacingAndGlyphs">10.0</text></g>
<g><text x="40.16" y="122.60" text-anchor="end" style="font-family: Arial;font-size: 8.80px;fill: #4D4D4D;" textLength="17.13px" lengthAdjust="spacingAndGlyphs">12.5</text></g>
<g><text x="40.16" y="88.45" text-anchor="end" style="font-family: Arial;font-size: 8.80px;fill: #4D4D4D;" textLength="17.13px" lengthAdjust="spacingAndGlyphs">15.0</text></g>
<g><text x="40.16" y="54.30" text-anchor="end" style="font-family: Arial;font-size: 8.80px;fill: #4D4D4D;" textLength="17.13px" lengthAdjust="spacingAndGlyphs">17.5</text></g>
<g><text transform="translate(55.61,201.88) rotate(-45.00)" text-anchor="end" style="font-family: Arial;font-size: 8.80px;fill: #4D4D4D;" textLength="21.02px" lengthAdjust="spacingAndGlyphs">Mock</text></g>
<g><text transform="translate(65.71,201.88) rotate(-45.00)" text-anchor="end" style="font-family: Arial;font-size: 8.80px;fill: #4D4D4D;" textLength="19.58px" lengthAdjust="spacingAndGlyphs">1847</text></g>
<g><text transform="translate(75.82,201.88) rotate(-45.00)" text-anchor="end" style="font-family: Arial;font-size: 8.80px;fill: #4D4D4D;" textLength="19.58px" lengthAdjust="spacingAndGlyphs">1338</text></g>
<g><text transform="translate(85.92,201.88) rotate(-45.00)" text-anchor="end" style="font-family: Arial;font-size: 8.80px;fill: #4D4D4D;" textLength="19.58px" lengthAdjust="spacingAndGlyphs">1334</text></g>
<g><text transform="translate(96.03,201.88) rotate(-45.00)" text-anchor="end" style="font-family: Arial;font-size: 8.80px;fill: #4D4D4D;" textLength="14.69px" lengthAdjust="spacingAndGlyphs">939</text></g>
<g><text transform="translate(106.13,201.88) rotate(-45.00)" text-anchor="end" style="font-family: Arial;font-size: 8.80px;fill: #4D4D4D;" textLength="14.69px" lengthAdjust="spacingAndGlyphs">709</text></g>
<g><text transform="translate(116.24,201.88) rotate(-45.00)" text-anchor="end" style="font-family: Arial;font-size: 8.80px;fill: #4D4D4D;" textLength="19.58px" lengthAdjust="spacingAndGlyphs">1234</text></g>
<g><text transform="translate(126.34,201.88) rotate(-45.00)" text-anchor="end" style="font-family: Arial;font-size: 8.80px;fill: #4D4D4D;" textLength="19.58px" lengthAdjust="spacingAndGlyphs">1703</text></g>
<g><text transform="translate(136.45,201.88) rotate(-45.00)" text-anchor="end" style="font-family: Arial;font-size: 8.80px;fill: #4D4D4D;" textLength="19.58px" lengthAdjust="spacingAndGlyphs">3044</text></g>
<g><text transform="translate(146.55,201.88) rotate(-45.00)" text-anchor="end" style="font-family: Arial;font-size: 8.80px;fill: #4D4D4D;" textLength="19.58px" lengthAdjust="spacingAndGlyphs">1350</text></g>
<g><text transform="translate(156.66,201.88) rotate(-45.00)" text-anchor="end" style="font-family: Arial;font-size: 8.80px;fill: #4D4D4D;" textLength="14.69px" lengthAdjust="spacingAndGlyphs">459</text></g>
<g><text transform="translate(166.76,201.88) rotate(-45.00)" text-anchor="end" style="font-family: Arial;font-size: 8.80px;fill: #4D4D4D;" textLength="19.58px" lengthAdjust="spacingAndGlyphs">1080</text></g>
<g><text transform="translate(176.87,201.88) rotate(-45.00)" text-anchor="end" style="font-family: Arial;font-size: 8.80px;fill: #4D4D4D;" textLength="14.69px" lengthAdjust="spacingAndGlyphs">428</text></g>
<g><text transform="translate(186.97,201.88) rotate(-45.00)" text-anchor="end" style="font-family: Arial;font-size: 8.80px;fill: #4D4D4D;" textLength="19.58px" lengthAdjust="spacingAndGlyphs">1208</text></g>
<g><text transform="translate(197.07,201.88) rotate(-45.00)" text-anchor="end" style="font-family: Arial;font-size: 8.80px;fill: #4D4D4D;" textLength="19.58px" lengthAdjust="spacingAndGlyphs">1790</text></g>
<g><text transform="translate(207.18,201.88) rotate(-45.00)" text-anchor="end" style="font-family: Arial;font-size: 8.80px;fill: #4D4D4D;" textLength="19.58px" lengthAdjust="spacingAndGlyphs">1114</text></g>
<g><text transform="translate(217.28,201.88) rotate(-45.00)" text-anchor="end" style="font-family: Arial;font-size: 8.80px;fill: #4D4D4D;" textLength="14.69px" lengthAdjust="spacingAndGlyphs">638</text></g>
<g><text transform="translate(227.39,201.88) rotate(-45.00)" text-anchor="end" style="font-family: Arial;font-size: 8.80px;fill: #4D4D4D;" textLength="19.58px" lengthAdjust="spacingAndGlyphs">1533</text></g>
<g><text transform="translate(237.49,201.88) rotate(-45.00)" text-anchor="end" style="font-family: Arial;font-size: 8.80px;fill: #4D4D4D;" textLength="19.58px" lengthAdjust="spacingAndGlyphs">1362</text></g>
<g><text transform="translate(247.60,201.88) rotate(-45.00)" text-anchor="end" style="font-family: Arial;font-size: 8.80px;fill: #4D4D4D;" textLength="19.58px" lengthAdjust="spacingAndGlyphs">1475</text></g>
<g><text transform="translate(257.70,201.88) rotate(-45.00)" text-anchor="end" style="font-family: Arial;font-size: 8.80px;fill: #4D4D4D;" textLength="14.69px" lengthAdjust="spacingAndGlyphs">997</text></g>
<g><text transform="translate(267.81,201.88) rotate(-45.00)" text-anchor="end" style="font-family: Arial;font-size: 8.80px;fill: #4D4D4D;" textLength="19.58px" lengthAdjust="spacingAndGlyphs">1692</text></g>
<g><text transform="translate(277.91,201.88) rotate(-45.00)" text-anchor="end" style="font-family: Arial;font-size: 8.80px;fill: #4D4D4D;" textLength="14.69px" lengthAdjust="spacingAndGlyphs">796</text></g>
<g><text transform="translate(288.02,201.88) rotate(-45.00)" text-anchor="end" style="font-family: Arial;font-size: 8.80px;fill: #4D4D4D;" textLength="19.58px" lengthAdjust="spacingAndGlyphs">2751</text></g>
<g><text transform="translate(298.12,201.88) rotate(-45.00)" text-anchor="end" style="font-family: Arial;font-size: 8.80px;fill: #4D4D4D;" textLength="14.69px" lengthAdjust="spacingAndGlyphs">978</text></g>
<g><text transform="translate(308.23,201.88) rotate(-45.00)" text-anchor="end" style="font-family: Arial;font-size: 8.80px;fill: #4D4D4D;" textLength="19.58px" lengthAdjust="spacingAndGlyphs">2998</text></g>
<g><text transform="translate(318.33,201.88) rotate(-45.00)" text-anchor="end" style="font-family: Arial;font-size: 8.80px;fill: #4D4D4D;" textLength="19.58px" lengthAdjust="spacingAndGlyphs">1725</text></g>
<g><text transform="translate(328.43,201.88) rotate(-45.00)" text-anchor="end" style="font-family: Arial;font-size: 8.80px;fill: #4D4D4D;" textLength="19.58px" lengthAdjust="spacingAndGlyphs">1101</text></g>
<g><text x="187.56" y="228.76" text-anchor="middle" style="font-family: Arial;font-size: 11.00px;" textLength="74.58px" lengthAdjust="spacingAndGlyphs">Bacterial Strain</text></g>
<g><text transform="translate(17.85,110.15) rotate(-90.00)" text-anchor="middle" style="font-family: Arial;font-size: 11.00px;" textLength="84.99px" lengthAdjust="spacingAndGlyphs">Root Length (cm)</text></g>
<g><text x="-5.19" y="271.60" style="font-family: Arial;font-size: 11.00px;" textLength="27.50px" lengthAdjust="spacingAndGlyphs">Class</text></g>
<polyline points="36.43,263.18 36.43,260.59" style="stroke-width: 1.07;stroke: #333333;stroke-linecap: butt;stroke-linejoin: miter;"/>
<polyline points="36.43,251.95 36.43,249.36" style="stroke-width: 1.07;stroke: #333333;stroke-linecap: butt;stroke-linejoin: miter;"/>
<rect x="29.95" y="251.95" width="12.96" height="8.64" style="stroke-width: 1.07;stroke: #333333;stroke-linecap: butt;stroke-linejoin: miter;fill: #BEBEBE;fill-opacity: 0.70;"/>
<polyline points="29.95,256.27 42.91,256.27" style="stroke-width: 1.07;stroke: #333333;stroke-linecap: butt;stroke-linejoin: miter;"/>
<polyline points="36.43,285.94 36.43,283.35" style="stroke-width: 1.07;stroke: #333333;stroke-linecap: butt;stroke-linejoin: miter;"/>
<polyline points="36.43,274.71 36.43,272.12" style="stroke-width: 1.07;stroke: #333333;stroke-linecap: butt;stroke-linejoin: miter;"/>
<rect x="29.95" y="274.71" width="12.96" height="8.64" style="stroke-width: 1.07;stroke: #333333;stroke-linecap: butt;stroke-linejoin: miter;fill: #87DECD;fill-opacity: 0.70;"/>
<polyline points="29.95,279.03 42.91,279.03" style="stroke-width: 1.07;stroke: #333333;stroke-linecap: butt;stroke-linejoin: miter;"/>
<polyline points="143.44,263.18 143.44,260.59" style="stroke-width: 1.07;stroke: #333333;stroke-linecap: butt;stroke-linejoin: miter;"/>
<polyline points="143.44,251.95 143.44,249.36" style="stroke-width: 1.07;stroke: #333333;stroke-linecap: butt;stroke-linejoin: miter;"/>
<rect x="136.96" y="251.95" width="12.96" height="8.64" style="stroke-width: 1.07;stroke: #333333;stroke-linecap: butt;stroke-linejoin: miter;fill: #AFC6E9;fill-opacity: 0.70;"/>
<polyline points="136.96,256.27 149.92,256.27" style="stroke-width: 1.07;stroke: #333333;stroke-linecap: butt;stroke-linejoin: miter;"/>
<polyline points="143.44,285.94 143.44,283.35" style="stroke-width: 1.07;stroke: #333333;stroke-linecap: butt;stroke-linejoin: miter;"/>
<polyline points="143.44,274.71 143.44,272.12" style="stroke-width: 1.07;stroke: #333333;stroke-linecap: butt;stroke-linejoin: miter;"/>
<rect x="136.96" y="274.71" width="12.96" height="8.64" style="stroke-width: 1.07;stroke: #333333;stroke-linecap: butt;stroke-linejoin: miter;fill: #D35F5F;fill-opacity: 0.70;"/>
<polyline points="136.96,279.03 149.92,279.03" style="stroke-width: 1.07;stroke: #333333;stroke-linecap: butt;stroke-linejoin: miter;"/>
<polyline points="227.44,263.18 227.44,260.59" style="stroke-width: 1.07;stroke: #333333;stroke-linecap: butt;stroke-linejoin: miter;"/>
<polyline points="227.44,251.95 227.44,249.36" style="stroke-width: 1.07;stroke: #333333;stroke-linecap: butt;stroke-linejoin: miter;"/>
<rect x="220.96" y="251.95" width="12.96" height="8.64" style="stroke-width: 1.07;stroke: #333333;stroke-linecap: butt;stroke-linejoin: miter;fill: #FFE680;fill-opacity: 0.70;"/>
<polyline points="220.96,256.27 233.92,256.27" style="stroke-width: 1.07;stroke: #333333;stroke-linecap: butt;stroke-linejoin: miter;"/>
<polyline points="227.44,285.94 227.44,283.35" style="stroke-width: 1.07;stroke: #333333;stroke-linecap: butt;stroke-linejoin: miter;"/>
<polyline points="227.44,274.71 227.44,272.12" style="stroke-width: 1.07;stroke: #333333;stroke-linecap: butt;stroke-linejoin: miter;"/>
<rect x="220.96" y="274.71" width="12.96" height="8.64" style="stroke-width: 1.07;stroke: #333333;stroke-linecap: butt;stroke-linejoin: miter;fill: #F2B134;fill-opacity: 0.70;"/>
<polyline points="220.96,279.03 233.92,279.03" style="stroke-width: 1.07;stroke: #333333;stroke-linecap: butt;stroke-linejoin: miter;"/>
<polyline points="343.23,263.18 343.23,260.59" style="stroke-width: 1.07;stroke: #333333;stroke-linecap: butt;stroke-linejoin: miter;"/>
<polyline points="343.23,251.95 343.23,249.36" style="stroke-width: 1.07;stroke: #333333;stroke-linecap: butt;stroke-linejoin: miter;"/>
<rect x="336.75" y="251.95" width="12.96" height="8.64" style="stroke-width: 1.07;stroke: #333333;stroke-linecap: butt;stroke-linejoin: miter;fill: #DDAFE9;fill-opacity: 0.70;"/>
<polyline points="336.75,256.27 349.71,256.27" style="stroke-width: 1.07;stroke: #333333;stroke-linecap: butt;stroke-linejoin: miter;"/>
<g><text x="50.55" y="259.42" style="font-family: Arial;font-size: 8.80px;" textLength="21.02px" lengthAdjust="spacingAndGlyphs">Mock</text></g>
<g><text x="50.55" y="282.18" style="font-family: Arial;font-size: 8.80px;" textLength="78.77px" lengthAdjust="spacingAndGlyphs">Alphaproteobacteria</text></g>
<g><text x="157.56" y="259.42" style="font-family: Arial;font-size: 8.80px;" textLength="55.76px" lengthAdjust="spacingAndGlyphs">Actinobacteria</text></g>
<g><text x="157.56" y="282.18" style="font-family: Arial;font-size: 8.80px;" textLength="53.81px" lengthAdjust="spacingAndGlyphs">Chitinophagia</text></g>
<g><text x="241.56" y="259.42" style="font-family: Arial;font-size: 8.80px;" textLength="87.55px" lengthAdjust="spacingAndGlyphs">Gammaproteobacteria</text></g>
<g><text x="241.56" y="282.18" style="font-family: Arial;font-size: 8.80px;" textLength="74.36px" lengthAdjust="spacingAndGlyphs">Betaproteobacteria</text></g>
<g><text x="357.35" y="259.42" style="font-family: Arial;font-size: 8.80px;" textLength="22.97px" lengthAdjust="spacingAndGlyphs">Bacilli</text></g>
<g><text x="45.09" y="19.42" style="font-family: Arial;font-size: 13.20px;" textLength="302.80px" lengthAdjust="spacingAndGlyphs">Comparison of Root Length (mg) by Bacterial Strain</text></g>
</g>
</svg>