<svg xmlns="http://www.w3.org/2000/svg" xmlns:xlink="http://www.w3.org/1999/xlink" class="httpgd" width="340.00" height="333.00" viewBox="0 0 340.00 333.00">
<defs>
  <style type='text/css'><![CDATA[
    .httpgd line, .httpgd polyline, .httpgd polygon, .httpgd path, .httpgd rect, .httpgd circle {
      fill: none;
      stroke: #000000;
      stroke-linecap: round;
      stroke-linejoin: round;
      stroke-miterlimit: 10.00;
    }
  ]]></style>
<clipPath id="c0"><rect x="0.00" y="0.00" width="340.00" height="333.00"/></clipPath>
<clipPath id="c1"><rect x="42.65" y="27.82" width="287.39" height="164.67"/></clipPath>
<clipPath id="c2"><rect x="0.00" y="0.00" width="340.00" height="333.00"/></clipPath>
</defs>
<rect width="100%" height="100%" style="stroke: none;fill: #FFFFFF;"/>
<g clip-path="url(#c0)">
</g><g clip-path="url(#c1)">
<polyline points="42.65,168.37 330.04,168.37" style="stroke-width: 0.53;stroke: #EBEBEB;stroke-linecap: butt;"/>
<polyline points="42.65,128.77 330.04,128.77" style="stroke-width: 0.53;stroke: #EBEBEB;stroke-linecap: butt;"/>
<polyline points="42.65,89.16 330.04,89.16" style="stroke-width: 0.53;stroke: #EBEBEB;stroke-linecap: butt;"/>
<polyline points="42.65,49.56 330.04,49.56" style="stroke-width: 0.53;stroke: #EBEBEB;stroke-linecap: butt;"/>
<polyline points="42.65,188.17 330.04,188.17" style="stroke-width: 1.07;stroke: #EBEBEB;stroke-linecap: butt;"/>
<polyline points="42.65,148.57 330.04,148.57" style="stroke-width: 1.07;stroke: #EBEBEB;stroke-linecap: butt;"/>
<polyline points="42.65,108.97 330.04,108.97" style="stroke-width: 1.07;stroke: #EBEBEB;stroke-linecap: butt;"/>
<polyline points="42.65,69.36 330.04,69.36" style="stroke-width: 1.07;stroke: #EBEBEB;stroke-linecap: butt;"/>
<polyline points="42.65,29.76 330.04,29.76" style="stroke-width: 1.07;stroke: #EBEBEB;stroke-linecap: butt;"/>
<polyline points="48.76,192.49 48.76,27.82" style="stroke-width: 1.07;stroke: #EBEBEB;stroke-linecap: butt;"/>
<polyline points="58.95,192.49 58.95,27.82" style="stroke-width: 1.07;stroke: #EBEBEB;stroke-linecap: butt;"/>
<polyline points="69.14,192.49 69.14,27.82" style="stroke-width: 1.07;stroke: #EBEBEB;stroke-linecap: butt;"/>
<polyline points="79.33,192.49 79.33,27.82" style="stroke-width: 1.07;stroke: #EBEBEB;stroke-linecap: butt;"/>
<polyline points="89.53,192.49 89.53,27.82" style="stroke-width: 1.07;stroke: #EBEBEB;stroke-linecap: butt;"/>
<polyline points="99.72,192.49 99.72,27.82" style="stroke-width: 1.07;stroke: #EBEBEB;stroke-linecap: butt;"/>
<polyline points="109.91,192.49 109.91,27.82" style="stroke-width: 1.07;stroke: #EBEBEB;stroke-linecap: butt;"/>
<polyline points="120.10,192.49 120.10,27.82" style="stroke-width: 1.07;stroke: #EBEBEB;stroke-linecap: butt;"/>
<polyline points="130.29,192.49 130.29,27.82" style="stroke-width: 1.07;stroke: #EBEBEB;stroke-linecap: butt;"/>
<polyline points="140.48,192.49 140.48,27.82" style="stroke-width: 1.07;stroke: #EBEBEB;stroke-linecap: butt;"/>
<polyline points="150.67,192.49 150.67,27.82" style="stroke-width: 1.07;stroke: #EBEBEB;stroke-linecap: butt;"/>
<polyline points="160.86,192.49 160.86,27.82" style="stroke-width: 1.07;stroke: #EBEBEB;stroke-linecap: butt;"/>
<polyline points="171.06,192.49 171.06,27.82" style="stroke-width: 1.07;stroke: #EBEBEB;stroke-linecap: butt;"/>
<polyline points="181.25,192.49 181.25,27.82" style="stroke-width: 1.07;stroke: #EBEBEB;stroke-linecap: butt;"/>
<polyline points="191.44,192.49 191.44,27.82" style="stroke-width: 1.07;stroke: #EBEBEB;stroke-linecap: butt;"/>
<polyline points="201.63,192.49 201.63,27.82" style="stroke-width: 1.07;stroke: #EBEBEB;stroke-linecap: butt;"/>
<polyline points="211.82,192.49 211.82,27.82" style="stroke-width: 1.07;stroke: #EBEBEB;stroke-linecap: butt;"/>
<polyline points="222.01,192.49 222.01,27.82" style="stroke-width: 1.07;stroke: #EBEBEB;stroke-linecap: butt;"/>
<polyline points="232.20,192.49 232.20,27.82" style="stroke-width: 1.07;stroke: #EBEBEB;stroke-linecap: butt;"/>
<polyline points="242.39,192.49 242.39,27.82" style="stroke-width: 1.07;stroke: #EBEBEB;stroke-linecap: butt;"/>
<polyline points="252.58,192.49 252.58,27.82" style="stroke-width: 1.07;stroke: #EBEBEB;stroke-linecap: butt;"/>
<polyline points="262.78,192.49 262.78,27.82" style="stroke-width: 1.07;stroke: #EBEBEB;stroke-linecap: butt;"/>
<polyline points="272.97,192.49 272.97,27.82" style="stroke-width: 1.07;stroke: #EBEBEB;stroke-linecap: butt;"/>
<polyline points="283.16,192.49 283.16,27.82" style="stroke-width: 1.07;stroke: #EBEBEB;stroke-linecap: butt;"/>
<polyline points="293.35,192.49 293.35,27.82" style="stroke-width: 1.07;stroke: #EBEBEB;stroke-linecap: butt;"/>
<polyline points="303.54,192.49 303.54,27.82" style="stroke-width: 1.07;stroke: #EBEBEB;stroke-linecap: butt;"/>
<polyline points="313.73,192.49 313.73,27.82" style="stroke-width: 1.07;stroke: #EBEBEB;stroke-linecap: butt;"/>
<polyline points="323.92,192.49 323.92,27.82" style="stroke-width: 1.07;stroke: #EBEBEB;stroke-linecap: butt;"/>
<line x1="48.76" y1="93.13" x2="48.76" y2="70.16" style="stroke-width: 1.07;stroke: #333333;stroke-linecap: butt;"/>
<line x1="48.76" y1="120.45" x2="48.76" y2="135.10" style="stroke-width: 1.07;stroke: #333333;stroke-linecap: butt;"/>
<polygon points="45.32,93.13 45.32,120.45 52.20,120.45 52.20,93.13 45.32,93.13" style="stroke-width: 1.07;stroke: #333333;stroke-linecap: butt;stroke-linejoin: miter;fill: #BEBEBE;fill-opacity: 0.70;" />
<line x1="45.32" y1="112.53" x2="52.20" y2="112.53" style="stroke-width: 2.13;stroke: #333333;stroke-linecap: butt;stroke-linejoin: miter;"/>
<circle cx="58.95" cy="130.35" r="1.95" style="stroke-width: 0.71;stroke: #333333;stroke-opacity: 0.70;fill: #333333;fill-opacity: 0.70;"/>
<line x1="58.95" y1="160.65" x2="58.95" y2="149.36" style="stroke-width: 1.07;stroke: #333333;stroke-linecap: butt;"/>
<line x1="58.95" y1="178.67" x2="58.95" y2="185.01" style="stroke-width: 1.07;stroke: #333333;stroke-linecap: butt;"/>
<polygon points="55.51,160.65 55.51,178.67 62.39,178.67 62.39,160.65 55.51,160.65" style="stroke-width: 1.07;stroke: #333333;stroke-linecap: butt;stroke-linejoin: miter;fill: #FFE680;fill-opacity: 0.70;" />
<line x1="55.51" y1="171.14" x2="62.39" y2="171.14" style="stroke-width: 2.13;stroke: #333333;stroke-linecap: butt;stroke-linejoin: miter;"/>
<line x1="69.14" y1="145.40" x2="69.14" y2="126.39" style="stroke-width: 1.07;stroke: #333333;stroke-linecap: butt;"/>
<line x1="69.14" y1="166.99" x2="69.14" y2="183.42" style="stroke-width: 1.07;stroke: #333333;stroke-linecap: butt;"/>
<polygon points="65.70,145.40 65.70,166.99 72.58,166.99 72.58,145.40 65.70,145.40" style="stroke-width: 1.07;stroke: #333333;stroke-linecap: butt;stroke-linejoin: miter;fill: #D35F5F;fill-opacity: 0.70;" />
<line x1="65.70" y1="160.85" x2="72.58" y2="160.85" style="stroke-width: 2.13;stroke: #333333;stroke-linecap: butt;stroke-linejoin: miter;"/>
<circle cx="79.33" cy="129.56" r="1.95" style="stroke-width: 0.71;stroke: #333333;stroke-opacity: 0.70;fill: #333333;fill-opacity: 0.70;"/>
<line x1="79.33" y1="151.54" x2="79.33" y2="150.95" style="stroke-width: 1.07;stroke: #333333;stroke-linecap: butt;"/>
<line x1="79.33" y1="162.04" x2="79.33" y2="170.75" style="stroke-width: 1.07;stroke: #333333;stroke-linecap: butt;"/>
<polygon points="75.90,151.54 75.90,162.04 82.77,162.04 82.77,151.54 75.90,151.54" style="stroke-width: 1.07;stroke: #333333;stroke-linecap: butt;stroke-linejoin: miter;fill: #AFC6E9;fill-opacity: 0.70;" />
<line x1="75.90" y1="155.30" x2="82.77" y2="155.30" style="stroke-width: 2.13;stroke: #333333;stroke-linecap: butt;stroke-linejoin: miter;"/>
<line x1="89.53" y1="128.97" x2="89.53" y2="89.16" style="stroke-width: 1.07;stroke: #333333;stroke-linecap: butt;"/>
<line x1="89.53" y1="157.28" x2="89.53" y2="162.04" style="stroke-width: 1.07;stroke: #333333;stroke-linecap: butt;"/>
<polygon points="86.09,128.97 86.09,157.28 92.97,157.28 92.97,128.97 86.09,128.97" style="stroke-width: 1.07;stroke: #333333;stroke-linecap: butt;stroke-linejoin: miter;fill: #87DECD;fill-opacity: 0.70;" />
<line x1="86.09" y1="136.29" x2="92.97" y2="136.29" style="stroke-width: 2.13;stroke: #333333;stroke-linecap: butt;stroke-linejoin: miter;"/>
<line x1="99.72" y1="116.49" x2="99.72" y2="97.09" style="stroke-width: 1.07;stroke: #333333;stroke-linecap: butt;"/>
<line x1="99.72" y1="137.28" x2="99.72" y2="146.99" style="stroke-width: 1.07;stroke: #333333;stroke-linecap: butt;"/>
<polygon points="96.28,116.49 96.28,137.28 103.16,137.28 103.16,116.49 96.28,116.49" style="stroke-width: 1.07;stroke: #333333;stroke-linecap: butt;stroke-linejoin: miter;fill: #DDAFE9;fill-opacity: 0.70;" />
<line x1="96.28" y1="129.16" x2="103.16" y2="129.16" style="stroke-width: 2.13;stroke: #333333;stroke-linecap: butt;stroke-linejoin: miter;"/>
<line x1="109.91" y1="120.85" x2="109.91" y2="94.71" style="stroke-width: 1.07;stroke: #333333;stroke-linecap: butt;"/>
<line x1="109.91" y1="143.03" x2="109.91" y2="151.74" style="stroke-width: 1.07;stroke: #333333;stroke-linecap: butt;"/>
<polygon points="106.47,120.85 106.47,143.03 113.35,143.03 113.35,120.85 106.47,120.85" style="stroke-width: 1.07;stroke: #333333;stroke-linecap: butt;stroke-linejoin: miter;fill: #87DECD;fill-opacity: 0.70;" />
<line x1="106.47" y1="127.58" x2="113.35" y2="127.58" style="stroke-width: 2.13;stroke: #333333;stroke-linecap: butt;stroke-linejoin: miter;"/>
<line x1="120.10" y1="103.42" x2="120.10" y2="97.88" style="stroke-width: 1.07;stroke: #333333;stroke-linecap: butt;"/>
<line x1="120.10" y1="132.13" x2="120.10" y2="139.07" style="stroke-width: 1.07;stroke: #333333;stroke-linecap: butt;"/>
<polygon points="116.66,103.42 116.66,132.13 123.54,132.13 123.54,103.42 116.66,103.42" style="stroke-width: 1.07;stroke: #333333;stroke-linecap: butt;stroke-linejoin: miter;fill: #87DECD;fill-opacity: 0.70;" />
<line x1="116.66" y1="127.18" x2="123.54" y2="127.18" style="stroke-width: 2.13;stroke: #333333;stroke-linecap: butt;stroke-linejoin: miter;"/>
<line x1="130.29" y1="117.68" x2="130.29" y2="94.71" style="stroke-width: 1.07;stroke: #333333;stroke-linecap: butt;"/>
<line x1="130.29" y1="135.90" x2="130.29" y2="157.28" style="stroke-width: 1.07;stroke: #333333;stroke-linecap: butt;"/>
<polygon points="126.85,117.68 126.85,135.90 133.73,135.90 133.73,117.68 126.85,117.68" style="stroke-width: 1.07;stroke: #333333;stroke-linecap: butt;stroke-linejoin: miter;fill: #FFE680;fill-opacity: 0.70;" />
<line x1="126.85" y1="126.79" x2="133.73" y2="126.79" style="stroke-width: 2.13;stroke: #333333;stroke-linecap: butt;stroke-linejoin: miter;"/>
<circle cx="140.48" cy="67.78" r="1.95" style="stroke-width: 0.71;stroke: #333333;stroke-opacity: 0.70;fill: #333333;fill-opacity: 0.70;"/>
<line x1="140.48" y1="112.33" x2="140.48" y2="108.17" style="stroke-width: 1.07;stroke: #333333;stroke-linecap: butt;"/>
<line x1="140.48" y1="135.10" x2="140.48" y2="150.15" style="stroke-width: 1.07;stroke: #333333;stroke-linecap: butt;"/>
<polygon points="137.04,112.33 137.04,135.10 143.92,135.10 143.92,112.33 137.04,112.33" style="stroke-width: 1.07;stroke: #333333;stroke-linecap: butt;stroke-linejoin: miter;fill: #AFC6E9;fill-opacity: 0.70;" />
<line x1="137.04" y1="126.39" x2="143.92" y2="126.39" style="stroke-width: 2.13;stroke: #333333;stroke-linecap: butt;stroke-linejoin: miter;"/>
<line x1="150.67" y1="96.49" x2="150.67" y2="71.74" style="stroke-width: 1.07;stroke: #333333;stroke-linecap: butt;"/>
<line x1="150.67" y1="135.90" x2="150.67" y2="143.03" style="stroke-width: 1.07;stroke: #333333;stroke-linecap: butt;"/>
<polygon points="147.23,96.49 147.23,135.90 154.11,135.90 154.11,96.49 147.23,96.49" style="stroke-width: 1.07;stroke: #333333;stroke-linecap: butt;stroke-linejoin: miter;fill: #87DECD;fill-opacity: 0.70;" />
<line x1="147.23" y1="124.41" x2="154.11" y2="124.41" style="stroke-width: 2.13;stroke: #333333;stroke-linecap: butt;stroke-linejoin: miter;"/>
<line x1="160.86" y1="113.12" x2="160.86" y2="79.66" style="stroke-width: 1.07;stroke: #333333;stroke-linecap: butt;"/>
<line x1="160.86" y1="137.09" x2="160.86" y2="162.83" style="stroke-width: 1.07;stroke: #333333;stroke-linecap: butt;"/>
<polygon points="157.42,113.12 157.42,137.09 164.30,137.09 164.30,113.12 157.42,113.12" style="stroke-width: 1.07;stroke: #333333;stroke-linecap: butt;stroke-linejoin: miter;fill: #87DECD;fill-opacity: 0.70;" />
<line x1="157.42" y1="122.04" x2="164.30" y2="122.04" style="stroke-width: 2.13;stroke: #333333;stroke-linecap: butt;stroke-linejoin: miter;"/>
<circle cx="171.06" cy="67.78" r="1.95" style="stroke-width: 0.71;stroke: #333333;stroke-opacity: 0.70;fill: #333333;fill-opacity: 0.70;"/>
<line x1="171.06" y1="111.54" x2="171.06" y2="102.63" style="stroke-width: 1.07;stroke: #333333;stroke-linecap: butt;"/>
<line x1="171.06" y1="132.93" x2="171.06" y2="146.99" style="stroke-width: 1.07;stroke: #333333;stroke-linecap: butt;"/>
<polygon points="167.62,111.54 167.62,132.93 174.49,132.93 174.49,111.54 167.62,111.54" style="stroke-width: 1.07;stroke: #333333;stroke-linecap: butt;stroke-linejoin: miter;fill: #F2B134;fill-opacity: 0.70;" />
<line x1="167.62" y1="122.04" x2="174.49" y2="122.04" style="stroke-width: 2.13;stroke: #333333;stroke-linecap: butt;stroke-linejoin: miter;"/>
<line x1="181.25" y1="111.34" x2="181.25" y2="82.83" style="stroke-width: 1.07;stroke: #333333;stroke-linecap: butt;"/>
<line x1="181.25" y1="141.05" x2="181.25" y2="162.83" style="stroke-width: 1.07;stroke: #333333;stroke-linecap: butt;"/>
<polygon points="177.81,111.34 177.81,141.05 184.69,141.05 184.69,111.34 177.81,111.34" style="stroke-width: 1.07;stroke: #333333;stroke-linecap: butt;stroke-linejoin: miter;fill: #AFC6E9;fill-opacity: 0.70;" />
<line x1="177.81" y1="121.64" x2="184.69" y2="121.64" style="stroke-width: 2.13;stroke: #333333;stroke-linecap: butt;stroke-linejoin: miter;"/>
<line x1="191.44" y1="110.15" x2="191.44" y2="84.41" style="stroke-width: 1.07;stroke: #333333;stroke-linecap: butt;"/>
<line x1="191.44" y1="127.98" x2="191.44" y2="148.57" style="stroke-width: 1.07;stroke: #333333;stroke-linecap: butt;"/>
<polygon points="188.00,110.15 188.00,127.98 194.88,127.98 194.88,110.15 188.00,110.15" style="stroke-width: 1.07;stroke: #333333;stroke-linecap: butt;stroke-linejoin: miter;fill: #87DECD;fill-opacity: 0.70;" />
<line x1="188.00" y1="121.64" x2="194.88" y2="121.64" style="stroke-width: 2.13;stroke: #333333;stroke-linecap: butt;stroke-linejoin: miter;"/>
<line x1="201.63" y1="111.34" x2="201.63" y2="93.13" style="stroke-width: 1.07;stroke: #333333;stroke-linecap: butt;"/>
<line x1="201.63" y1="138.27" x2="201.63" y2="154.11" style="stroke-width: 1.07;stroke: #333333;stroke-linecap: butt;"/>
<polygon points="198.19,111.34 198.19,138.27 205.07,138.27 205.07,111.34 198.19,111.34" style="stroke-width: 1.07;stroke: #333333;stroke-linecap: butt;stroke-linejoin: miter;fill: #AFC6E9;fill-opacity: 0.70;" />
<line x1="198.19" y1="120.45" x2="205.07" y2="120.45" style="stroke-width: 2.13;stroke: #333333;stroke-linecap: butt;stroke-linejoin: miter;"/>
<line x1="211.82" y1="103.82" x2="211.82" y2="92.33" style="stroke-width: 1.07;stroke: #333333;stroke-linecap: butt;"/>
<line x1="211.82" y1="133.32" x2="211.82" y2="171.54" style="stroke-width: 1.07;stroke: #333333;stroke-linecap: butt;"/>
<polygon points="208.38,103.82 208.38,133.32 215.26,133.32 215.26,103.82 208.38,103.82" style="stroke-width: 1.07;stroke: #333333;stroke-linecap: butt;stroke-linejoin: miter;fill: #AFC6E9;fill-opacity: 0.70;" />
<line x1="208.38" y1="119.26" x2="215.26" y2="119.26" style="stroke-width: 2.13;stroke: #333333;stroke-linecap: butt;stroke-linejoin: miter;"/>
<circle cx="222.01" cy="153.32" r="1.95" style="stroke-width: 0.71;stroke: #333333;stroke-opacity: 0.70;fill: #333333;fill-opacity: 0.70;"/>
<line x1="222.01" y1="111.14" x2="222.01" y2="93.92" style="stroke-width: 1.07;stroke: #333333;stroke-linecap: butt;"/>
<line x1="222.01" y1="126.59" x2="222.01" y2="131.94" style="stroke-width: 1.07;stroke: #333333;stroke-linecap: butt;"/>
<polygon points="218.57,111.14 218.57,126.59 225.45,126.59 225.45,111.14 218.57,111.14" style="stroke-width: 1.07;stroke: #333333;stroke-linecap: butt;stroke-linejoin: miter;fill: #FFE680;fill-opacity: 0.70;" />
<line x1="218.57" y1="118.87" x2="225.45" y2="118.87" style="stroke-width: 2.13;stroke: #333333;stroke-linecap: butt;stroke-linejoin: miter;"/>
<line x1="232.20" y1="107.18" x2="232.20" y2="81.24" style="stroke-width: 1.07;stroke: #333333;stroke-linecap: butt;"/>
<line x1="232.20" y1="134.11" x2="232.20" y2="160.45" style="stroke-width: 1.07;stroke: #333333;stroke-linecap: butt;"/>
<polygon points="228.76,107.18 228.76,134.11 235.64,134.11 235.64,107.18 228.76,107.18" style="stroke-width: 1.07;stroke: #333333;stroke-linecap: butt;stroke-linejoin: miter;fill: #FFE680;fill-opacity: 0.70;" />
<line x1="228.76" y1="117.68" x2="235.64" y2="117.68" style="stroke-width: 2.13;stroke: #333333;stroke-linecap: butt;stroke-linejoin: miter;"/>
<circle cx="242.39" cy="79.66" r="1.95" style="stroke-width: 0.71;stroke: #333333;stroke-opacity: 0.70;fill: #333333;fill-opacity: 0.70;"/>
<circle cx="242.39" cy="150.15" r="1.95" style="stroke-width: 0.71;stroke: #333333;stroke-opacity: 0.70;fill: #333333;fill-opacity: 0.70;"/>
<line x1="242.39" y1="105.80" x2="242.39" y2="91.54" style="stroke-width: 1.07;stroke: #333333;stroke-linecap: butt;"/>
<line x1="242.39" y1="123.03" x2="242.39" y2="134.31" style="stroke-width: 1.07;stroke: #333333;stroke-linecap: butt;"/>
<polygon points="238.95,105.80 238.95,123.03 245.83,123.03 245.83,105.80 238.95,105.80" style="stroke-width: 1.07;stroke: #333333;stroke-linecap: butt;stroke-linejoin: miter;fill: #F2B134;fill-opacity: 0.70;" />
<line x1="238.95" y1="115.70" x2="245.83" y2="115.70" style="stroke-width: 2.13;stroke: #333333;stroke-linecap: butt;stroke-linejoin: miter;"/>
<circle cx="252.58" cy="97.09" r="1.95" style="stroke-width: 0.71;stroke: #333333;stroke-opacity: 0.70;fill: #333333;fill-opacity: 0.70;"/>
<circle cx="252.58" cy="138.27" r="1.95" style="stroke-width: 0.71;stroke: #333333;stroke-opacity: 0.70;fill: #333333;fill-opacity: 0.70;"/>
<line x1="252.58" y1="110.75" x2="252.58" y2="108.97" style="stroke-width: 1.07;stroke: #333333;stroke-linecap: butt;"/>
<line x1="252.58" y1="119.46" x2="252.58" y2="127.18" style="stroke-width: 1.07;stroke: #333333;stroke-linecap: butt;"/>
<polygon points="249.15,110.75 249.15,119.46 256.02,119.46 256.02,110.75 249.15,110.75" style="stroke-width: 1.07;stroke: #333333;stroke-linecap: butt;stroke-linejoin: miter;fill: #FFE680;fill-opacity: 0.70;" />
<line x1="249.15" y1="112.13" x2="256.02" y2="112.13" style="stroke-width: 2.13;stroke: #333333;stroke-linecap: butt;stroke-linejoin: miter;"/>
<line x1="262.78" y1="97.68" x2="262.78" y2="86.79" style="stroke-width: 1.07;stroke: #333333;stroke-linecap: butt;"/>
<line x1="262.78" y1="130.55" x2="262.78" y2="140.65" style="stroke-width: 1.07;stroke: #333333;stroke-linecap: butt;"/>
<polygon points="259.34,97.68 259.34,130.55 266.22,130.55 266.22,97.68 259.34,97.68" style="stroke-width: 1.07;stroke: #333333;stroke-linecap: butt;stroke-linejoin: miter;fill: #87DECD;fill-opacity: 0.70;" />
<line x1="259.34" y1="110.55" x2="266.22" y2="110.55" style="stroke-width: 2.13;stroke: #333333;stroke-linecap: butt;stroke-linejoin: miter;"/>
<line x1="272.97" y1="101.64" x2="272.97" y2="82.83" style="stroke-width: 1.07;stroke: #333333;stroke-linecap: butt;"/>
<line x1="272.97" y1="118.08" x2="272.97" y2="127.98" style="stroke-width: 1.07;stroke: #333333;stroke-linecap: butt;"/>
<polygon points="269.53,101.64 269.53,118.08 276.41,118.08 276.41,101.64 269.53,101.64" style="stroke-width: 1.07;stroke: #333333;stroke-linecap: butt;stroke-linejoin: miter;fill: #87DECD;fill-opacity: 0.70;" />
<line x1="269.53" y1="109.76" x2="276.41" y2="109.76" style="stroke-width: 2.13;stroke: #333333;stroke-linecap: butt;stroke-linejoin: miter;"/>
<line x1="283.16" y1="91.34" x2="283.16" y2="70.95" style="stroke-width: 1.07;stroke: #333333;stroke-linecap: butt;"/>
<line x1="283.16" y1="112.13" x2="283.16" y2="121.64" style="stroke-width: 1.07;stroke: #333333;stroke-linecap: butt;"/>
<polygon points="279.72,91.34 279.72,112.13 286.60,112.13 286.60,91.34 279.72,91.34" style="stroke-width: 1.07;stroke: #333333;stroke-linecap: butt;stroke-linejoin: miter;fill: #DDAFE9;fill-opacity: 0.70;" />
<line x1="279.72" y1="102.23" x2="286.60" y2="102.23" style="stroke-width: 2.13;stroke: #333333;stroke-linecap: butt;stroke-linejoin: miter;"/>
<line x1="293.35" y1="79.07" x2="293.35" y2="59.86" style="stroke-width: 1.07;stroke: #333333;stroke-linecap: butt;"/>
<line x1="293.35" y1="129.16" x2="293.35" y2="141.44" style="stroke-width: 1.07;stroke: #333333;stroke-linecap: butt;"/>
<polygon points="289.91,79.07 289.91,129.16 296.79,129.16 296.79,79.07 289.91,79.07" style="stroke-width: 1.07;stroke: #333333;stroke-linecap: butt;stroke-linejoin: miter;fill: #AFC6E9;fill-opacity: 0.70;" />
<line x1="289.91" y1="101.44" x2="296.79" y2="101.44" style="stroke-width: 2.13;stroke: #333333;stroke-linecap: butt;stroke-linejoin: miter;"/>
<line x1="301.63" y1="79.66" x2="301.63" y2="67.78" style="stroke-width: 1.07;stroke: #333333;stroke-linecap: butt;"/>
<line x1="301.63" y1="108.97" x2="301.63" y2="130.35" style="stroke-width: 1.07;stroke: #333333;stroke-linecap: butt;"/>
<polygon points="299.91,79.66 299.91,108.97 303.35,108.97 303.35,79.66 299.91,79.66" style="stroke-width: 1.07;stroke: #333333;stroke-linecap: butt;stroke-linejoin: miter;fill: #87DECD;fill-opacity: 0.70;" />
<line x1="299.91" y1="98.27" x2="303.35" y2="98.27" style="stroke-width: 2.13;stroke: #333333;stroke-linecap: butt;stroke-linejoin: miter;"/>
<line x1="305.45" y1="79.66" x2="305.45" y2="67.78" style="stroke-width: 1.07;stroke: #333333;stroke-linecap: butt;"/>
<line x1="305.45" y1="108.97" x2="305.45" y2="130.35" style="stroke-width: 1.07;stroke: #333333;stroke-linecap: butt;"/>
<polygon points="303.73,79.66 303.73,108.97 307.17,108.97 307.17,79.66 303.73,79.66" style="stroke-width: 1.07;stroke: #333333;stroke-linecap: butt;stroke-linejoin: miter;fill: #DDAFE9;fill-opacity: 0.70;" />
<line x1="303.73" y1="98.27" x2="307.17" y2="98.27" style="stroke-width: 2.13;stroke: #333333;stroke-linecap: butt;stroke-linejoin: miter;"/>
<line x1="313.73" y1="79.46" x2="313.73" y2="54.31" style="stroke-width: 1.07;stroke: #333333;stroke-linecap: butt;"/>
<line x1="313.73" y1="109.76" x2="313.73" y2="147.78" style="stroke-width: 1.07;stroke: #333333;stroke-linecap: butt;"/>
<polygon points="310.29,79.46 310.29,109.76 317.17,109.76 317.17,79.46 310.29,79.46" style="stroke-width: 1.07;stroke: #333333;stroke-linecap: butt;stroke-linejoin: miter;fill: #87DECD;fill-opacity: 0.70;" />
<line x1="310.29" y1="91.94" x2="317.17" y2="91.94" style="stroke-width: 2.13;stroke: #333333;stroke-linecap: butt;stroke-linejoin: miter;"/>
<line x1="323.92" y1="43.62" x2="323.92" y2="35.30" style="stroke-width: 1.07;stroke: #333333;stroke-linecap: butt;"/>
<line x1="323.92" y1="78.27" x2="323.92" y2="129.56" style="stroke-width: 1.07;stroke: #333333;stroke-linecap: butt;"/>
<polygon points="320.48,43.62 320.48,78.27 327.36,78.27 327.36,43.62 320.48,43.62" style="stroke-width: 1.07;stroke: #333333;stroke-linecap: butt;stroke-linejoin: miter;fill: #87DECD;fill-opacity: 0.70;" />
<line x1="320.48" y1="66.59" x2="327.36" y2="66.59" style="stroke-width: 2.13;stroke: #333333;stroke-linecap: butt;stroke-linejoin: miter;"/>
</g><g clip-path="url(#c2)">
<g><text x="37.72" y="191.33" text-anchor="end" style="font-family: Arial;font-size: 8.80px;fill: #4D4D4D;" textLength="9.79px" lengthAdjust="spacingAndGlyphs">50</text></g>
<g><text x="37.72" y="151.72" text-anchor="end" style="font-family: Arial;font-size: 8.80px;fill: #4D4D4D;" textLength="14.69px" lengthAdjust="spacingAndGlyphs">100</text></g>
<g><text x="37.72" y="112.12" text-anchor="end" style="font-family: Arial;font-size: 8.80px;fill: #4D4D4D;" textLength="14.69px" lengthAdjust="spacingAndGlyphs">150</text></g>
<g><text x="37.72" y="72.52" text-anchor="end" style="font-family: Arial;font-size: 8.80px;fill: #4D4D4D;" textLength="14.69px" lengthAdjust="spacingAndGlyphs">200</text></g>
<g><text x="37.72" y="32.91" text-anchor="end" style="font-family: Arial;font-size: 8.80px;fill: #4D4D4D;" textLength="14.69px" lengthAdjust="spacingAndGlyphs">250</text></g>
<g><text transform="translate(53.22,201.88) rotate(-45.00)" text-anchor="end" style="font-family: Arial;font-size: 8.80px;fill: #4D4D4D;" textLength="21.02px" lengthAdjust="spacingAndGlyphs">Mock</text></g>
<g><text transform="translate(63.41,201.88) rotate(-45.00)" text-anchor="end" style="font-family: Arial;font-size: 8.80px;fill: #4D4D4D;" textLength="19.58px" lengthAdjust="spacingAndGlyphs">1847</text></g>
<g><text transform="translate(73.60,201.88) rotate(-45.00)" text-anchor="end" style="font-family: Arial;font-size: 8.80px;fill: #4D4D4D;" textLength="19.58px" lengthAdjust="spacingAndGlyphs">1338</text></g>
<g><text transform="translate(83.79,201.88) rotate(-45.00)" text-anchor="end" style="font-family: Arial;font-size: 8.80px;fill: #4D4D4D;" textLength="19.58px" lengthAdjust="spacingAndGlyphs">1334</text></g>
<g><text transform="translate(93.99,201.88) rotate(-45.00)" text-anchor="end" style="font-family: Arial;font-size: 8.80px;fill: #4D4D4D;" textLength="14.69px" lengthAdjust="spacingAndGlyphs">939</text></g>
<g><text transform="translate(104.18,201.88) rotate(-45.00)" text-anchor="end" style="font-family: Arial;font-size: 8.80px;fill: #4D4D4D;" textLength="14.69px" lengthAdjust="spacingAndGlyphs">709</text></g>
<g><text transform="translate(114.37,201.88) rotate(-45.00)" text-anchor="end" style="font-family: Arial;font-size: 8.80px;fill: #4D4D4D;" textLength="19.58px" lengthAdjust="spacingAndGlyphs">1234</text></g>
<g><text transform="translate(124.56,201.88) rotate(-45.00)" text-anchor="end" style="font-family: Arial;font-size: 8.80px;fill: #4D4D4D;" textLength="19.58px" lengthAdjust="spacingAndGlyphs">1703</text></g>
<g><text transform="translate(134.75,201.88) rotate(-45.00)" text-anchor="end" style="font-family: Arial;font-size: 8.80px;fill: #4D4D4D;" textLength="19.58px" lengthAdjust="spacingAndGlyphs">3044</text></g>
<g><text transform="translate(144.94,201.88) rotate(-45.00)" text-anchor="end" style="font-family: Arial;font-size: 8.80px;fill: #4D4D4D;" textLength="19.58px" lengthAdjust="spacingAndGlyphs">1350</text></g>
<g><text transform="translate(155.13,201.88) rotate(-45.00)" text-anchor="end" style="font-family: Arial;font-size: 8.80px;fill: #4D4D4D;" textLength="14.69px" lengthAdjust="spacingAndGlyphs">459</text></g>
<g><text transform="translate(165.32,201.88) rotate(-45.00)" text-anchor="end" style="font-family: Arial;font-size: 8.80px;fill: #4D4D4D;" textLength="19.58px" lengthAdjust="spacingAndGlyphs">1080</text></g>
<g><text transform="translate(175.52,201.88) rotate(-45.00)" text-anchor="end" style="font-family: Arial;font-size: 8.80px;fill: #4D4D4D;" textLength="14.69px" lengthAdjust="spacingAndGlyphs">428</text></g>
<g><text transform="translate(185.71,201.88) rotate(-45.00)" text-anchor="end" style="font-family: Arial;font-size: 8.80px;fill: #4D4D4D;" textLength="19.58px" lengthAdjust="spacingAndGlyphs">1208</text></g>
<g><text transform="translate(195.90,201.88) rotate(-45.00)" text-anchor="end" style="font-family: Arial;font-size: 8.80px;fill: #4D4D4D;" textLength="19.58px" lengthAdjust="spacingAndGlyphs">1790</text></g>
<g><text transform="translate(206.09,201.88) rotate(-45.00)" text-anchor="end" style="font-family: Arial;font-size: 8.80px;fill: #4D4D4D;" textLength="19.58px" lengthAdjust="spacingAndGlyphs">1114</text></g>
<g><text transform="translate(216.28,201.88) rotate(-45.00)" text-anchor="end" style="font-family: Arial;font-size: 8.80px;fill: #4D4D4D;" textLength="14.69px" lengthAdjust="spacingAndGlyphs">638</text></g>
<g><text transform="translate(226.47,201.88) rotate(-45.00)" text-anchor="end" style="font-family: Arial;font-size: 8.80px;fill: #4D4D4D;" textLength="19.58px" lengthAdjust="spacingAndGlyphs">1533</text></g>
<g><text transform="translate(236.66,201.88) rotate(-45.00)" text-anchor="end" style="font-family: Arial;font-size: 8.80px;fill: #4D4D4D;" textLength="19.58px" lengthAdjust="spacingAndGlyphs">1362</text></g>
<g><text transform="translate(246.85,201.88) rotate(-45.00)" text-anchor="end" style="font-family: Arial;font-size: 8.80px;fill: #4D4D4D;" textLength="19.58px" lengthAdjust="spacingAndGlyphs">1475</text></g>
<g><text transform="translate(257.04,201.88) rotate(-45.00)" text-anchor="end" style="font-family: Arial;font-size: 8.80px;fill: #4D4D4D;" textLength="14.69px" lengthAdjust="spacingAndGlyphs">997</text></g>
<g><text transform="translate(267.24,201.88) rotate(-45.00)" text-anchor="end" style="font-family: Arial;font-size: 8.80px;fill: #4D4D4D;" textLength="19.58px" lengthAdjust="spacingAndGlyphs">1692</text></g>
<g><text transform="translate(277.43,201.88) rotate(-45.00)" text-anchor="end" style="font-family: Arial;font-size: 8.80px;fill: #4D4D4D;" textLength="14.69px" lengthAdjust="spacingAndGlyphs">796</text></g>
<g><text transform="translate(287.62,201.88) rotate(-45.00)" text-anchor="end" style="font-family: Arial;font-size: 8.80px;fill: #4D4D4D;" textLength="19.58px" lengthAdjust="spacingAndGlyphs">2751</text></g>
<g><text transform="translate(297.81,201.88) rotate(-45.00)" text-anchor="end" style="font-family: Arial;font-size: 8.80px;fill: #4D4D4D;" textLength="14.69px" lengthAdjust="spacingAndGlyphs">978</text></g>
<g><text transform="translate(308.00,201.88) rotate(-45.00)" text-anchor="end" style="font-family: Arial;font-size: 8.80px;fill: #4D4D4D;" textLength="19.58px" lengthAdjust="spacingAndGlyphs">2998</text></g>
<g><text transform="translate(318.19,201.88) rotate(-45.00)" text-anchor="end" style="font-family: Arial;font-size: 8.80px;fill: #4D4D4D;" textLength="19.58px" lengthAdjust="spacingAndGlyphs">1725</text></g>
<g><text transform="translate(328.38,201.88) rotate(-45.00)" text-anchor="end" style="font-family: Arial;font-size: 8.80px;fill: #4D4D4D;" textLength="19.58px" lengthAdjust="spacingAndGlyphs">1101</text></g>
<g><text x="186.34" y="228.76" text-anchor="middle" style="font-family: Arial;font-size: 11.00px;" textLength="74.58px" lengthAdjust="spacingAndGlyphs">Bacterial Strain</text></g>
<g><text transform="translate(17.85,110.15) rotate(-90.00)" text-anchor="middle" style="font-family: Arial;font-size: 11.00px;" textLength="86.19px" lengthAdjust="spacingAndGlyphs">Root Weight (mg)</text></g>
<g><text x="-6.41" y="271.60" style="font-family: Arial;font-size: 11.00px;" textLength="27.50px" lengthAdjust="spacingAndGlyphs">Class</text></g>
<polyline points="35.21,263.18 35.21,260.59" style="stroke-width: 1.07;stroke: #333333;stroke-linecap: butt;stroke-linejoin: miter;"/>
<polyline points="35.21,251.95 35.21,249.36" style="stroke-width: 1.07;stroke: #333333;stroke-linecap: butt;stroke-linejoin: miter;"/>
<rect x="28.73" y="251.95" width="12.96" height="8.64" style="stroke-width: 1.07;stroke: #333333;stroke-linecap: butt;stroke-linejoin: miter;fill: #BEBEBE;fill-opacity: 0.70;"/>
<polyline points="28.73,256.27 41.69,256.27" style="stroke-width: 1.07;stroke: #333333;stroke-linecap: butt;stroke-linejoin: miter;"/>
<polyline points="35.21,285.94 35.21,283.35" style="stroke-width: 1.07;stroke: #333333;stroke-linecap: butt;stroke-linejoin: miter;"/>
<polyline points="35.21,274.71 35.21,272.12" style="stroke-width: 1.07;stroke: #333333;stroke-linecap: butt;stroke-linejoin: miter;"/>
<rect x="28.73" y="274.71" width="12.96" height="8.64" style="stroke-width: 1.07;stroke: #333333;stroke-linecap: butt;stroke-linejoin: miter;fill: #87DECD;fill-opacity: 0.70;"/>
<polyline points="28.73,279.03 41.69,279.03" style="stroke-width: 1.07;stroke: #333333;stroke-linecap: butt;stroke-linejoin: miter;"/>
<polyline points="142.22,263.18 142.22,260.59" style="stroke-width: 1.07;stroke: #333333;stroke-linecap: butt;stroke-linejoin: miter;"/>
<polyline points="142.22,251.95 142.22,249.36" style="stroke-width: 1.07;stroke: #333333;stroke-linecap: butt;stroke-linejoin: miter;"/>
<rect x="135.74" y="251.95" width="12.96" height="8.64" style="stroke-width: 1.07;stroke: #333333;stroke-linecap: butt;stroke-linejoin: miter;fill: #AFC6E9;fill-opacity: 0.70;"/>
<polyline points="135.74,256.27 148.70,256.27" style="stroke-width: 1.07;stroke: #333333;stroke-linecap: butt;stroke-linejoin: miter;"/>
<polyline points="142.22,285.94 142.22,283.35" style="stroke-width: 1.07;stroke: #333333;stroke-linecap: butt;stroke-linejoin: miter;"/>
<polyline points="142.22,274.71 142.22,272.12" style="stroke-width: 1.07;stroke: #333333;stroke-linecap: butt;stroke-linejoin: miter;"/>
<rect x="135.74" y="274.71" width="12.96" height="8.64" style="stroke-width: 1.07;stroke: #333333;stroke-linecap: butt;stroke-linejoin: miter;fill: #D35F5F;fill-opacity: 0.70;"/>
<polyline points="135.74,279.03 148.70,279.03" style="stroke-width: 1.07;stroke: #333333;stroke-linecap: butt;stroke-linejoin: miter;"/>
<polyline points="226.22,263.18 226.22,260.59" style="stroke-width: 1.07;stroke: #333333;stroke-linecap: butt;stroke-linejoin: miter;"/>
<polyline points="226.22,251.95 226.22,249.36" style="stroke-width: 1.07;stroke: #333333;stroke-linecap: butt;stroke-linejoin: miter;"/>
<rect x="219.74" y="251.95" width="12.96" height="8.64" style="stroke-width: 1.07;stroke: #333333;stroke-linecap: butt;stroke-linejoin: miter;fill: #FFE680;fill-opacity: 0.70;"/>
<polyline points="219.74,256.27 232.70,256.27" style="stroke-width: 1.07;stroke: #333333;stroke-linecap: butt;stroke-linejoin: miter;"/>
<polyline points="226.22,285.94 226.22,283.35" style="stroke-width: 1.07;stroke: #333333;stroke-linecap: butt;stroke-linejoin: miter;"/>
<polyline points="226.22,274.71 226.22,272.12" style="stroke-width: 1.07;stroke: #333333;stroke-linecap: butt;stroke-linejoin: miter;"/>
<rect x="219.74" y="274.71" width="12.96" height="8.64" style="stroke-width: 1.07;stroke: #333333;stroke-linecap: butt;stroke-linejoin: miter;fill: #F2B134;fill-opacity: 0.70;"/>
<polyline points="219.74,279.03 232.70,279.03" style="stroke-width: 1.07;stroke: #333333;stroke-linecap: butt;stroke-linejoin: miter;"/>
<polyline points="342.01,263.18 342.01,260.59" style="stroke-width: 1.07;stroke: #333333;stroke-linecap: butt;stroke-linejoin: miter;"/>
<polyline points="342.01,251.95 342.01,249.36" style="stroke-width: 1.07;stroke: #333333;stroke-linecap: butt;stroke-linejoin: miter;"/>
<rect x="335.53" y="251.95" width="12.96" height="8.64" style="stroke-width: 1.07;stroke: #333333;stroke-linecap: butt;stroke-linejoin: miter;fill: #DDAFE9;fill-opacity: 0.70;"/>
<polyline points="335.53,256.27 348.49,256.27" style="stroke-width: 1.07;stroke: #333333;stroke-linecap: butt;stroke-linejoin: miter;"/>
<g><text x="49.33" y="259.42" style="font-family: Arial;font-size: 8.80px;" textLength="21.02px" lengthAdjust="spacingAndGlyphs">Mock</text></g>
<g><text x="49.33" y="282.18" style="font-family: Arial;font-size: 8.80px;" textLength="78.77px" lengthAdjust="spacingAndGlyphs">Alphaproteobacteria</text></g>
<g><text x="156.34" y="259.42" style="font-family: Arial;font-size: 8.80px;" textLength="55.76px" lengthAdjust="spacingAndGlyphs">Actinobacteria</text></g>
<g><text x="156.34" y="282.18" style="font-family: Arial;font-size: 8.80px;" textLength="53.81px" lengthAdjust="spacingAndGlyphs">Chitinophagia</text></g>
<g><text x="240.34" y="259.42" style="font-family: Arial;font-size: 8.80px;" textLength="87.55px" lengthAdjust="spacingAndGlyphs">Gammaproteobacteria</text></g>
<g><text x="240.34" y="282.18" style="font-family: Arial;font-size: 8.80px;" textLength="74.36px" lengthAdjust="spacingAndGlyphs">Betaproteobacteria</text></g>
<g><text x="356.13" y="259.42" style="font-family: Arial;font-size: 8.80px;" textLength="22.97px" lengthAdjust="spacingAndGlyphs">Bacilli</text></g>
<g><text x="42.65" y="19.42" style="font-family: Arial;font-size: 13.20px;" textLength="303.51px" lengthAdjust="spacingAndGlyphs">Comparison of Root Weight (mg) by Bacterial Strain</text></g>
</g>
</svg>